<?xml version="1.0" encoding="UTF-8" standalone="no"?>
<svg xmlns="http://www.w3.org/2000/svg" version="1.1" viewBox="0.00 0.00 2560.00 902.00">
  <path fill="#000066" d="   M 611.63 387.01   A 0.09 0.09 0.0 0 0 611.78 387.10   C 644.29 348.24 672.63 304.80 691.80 258.30   C 699.51 239.59 705.22 219.66 707.28 199.76   C 708.89 184.19 707.40 166.77 699.82 152.91   C 668.28 95.24 590.70 99.91 537.02 112.06   C 496.63 121.19 457.60 135.78 420.41 153.43   Q 361.44 181.43 307.85 218.90   A 0.48 0.48 0.0 0 1 307.17 218.78   L 300.49 209.10   A 0.48 0.48 0.0 0 1 300.57 208.46   Q 388.99 135.01 493.86 90.64   Q 527.40 76.45 568.77 65.35   Q 618.33 52.05 668.28 51.65   C 708.75 51.33 751.08 60.92 782.27 87.95   C 817.91 118.83 831.34 166.06 828.85 211.89   Q 827.65 233.82 822.82 255.83   C 815.37 289.79 803.32 322.91 788.88 354.38   C 767.53 400.95 741.81 444.50 712.60 487.10   Q 660.17 563.57 591.57 634.80   Q 535.10 693.44 471.59 741.34   Q 441.89 763.74 408.94 783.68   C 373.61 805.06 336.03 823.16 296.82 835.30   C 249.85 849.84 198.92 855.19 150.93 841.82   C 115.83 832.04 85.33 810.34 68.01 778.28   Q 54.42 753.12 51.99 723.26   C 47.69 670.44 64.25 616.81 90.46 570.42   C 115.28 526.47 147.86 486.85 184.46 451.95   Q 246.95 392.37 322.73 348.74   C 364.70 324.58 409.59 304.34 456.71 291.96   C 485.81 284.31 516.43 280.21 545.96 284.49   Q 563.29 287.00 577.70 293.98   C 613.35 311.28 626.12 350.95 611.63 387.01   Z   M 243.25 541.95   C 235.46 568.24 242.40 598.16 268.83 610.98   C 284.87 618.76 303.58 618.74 321.06 615.31   C 347.99 610.03 373.93 598.28 397.83 584.30   C 441.26 558.89 481.11 526.03 517.51 490.71   Q 524.67 483.75 528.28 479.60   Q 533.46 473.63 538.68 468.10   Q 547.46 458.77 553.38 450.15   Q 563.42 435.52 570.12 420.39   C 577.46 403.81 582.57 383.32 577.55 365.94   C 567.03 329.52 519.85 330.96 491.22 336.95   C 461.12 343.26 432.04 355.73 405.33 371.10   Q 361.38 396.38 323.27 431.02   C 297.96 454.04 274.72 480.01 257.29 509.77   Q 248.19 525.31 243.25 541.95   Z"></path>
  <path fill="#000066" d="   M 979.51 333.65   A 0.31 0.31 0.0 0 1 979.21 333.26   L 1005.13 236.63   A 0.50 0.50 0.0 0 1 1005.61 236.26   Q 1124.65 236.32 1151.72 236.24   Q 1167.15 236.19 1175.59 237.59   C 1201.31 241.86 1226.51 253.93 1244.72 272.77   C 1275.33 304.41 1278.60 347.28 1267.64 388.14   Q 1237.90 499.01 1180.15 714.67   A 0.34 0.33 -81.9 0 1 1179.83 714.92   Q 1126.65 714.95 987.00 714.91   C 948.22 714.90 903.30 703.83 875.79 674.27   Q 863.06 660.59 855.01 641.92   C 836.14 598.16 845.78 547.52 872.35 508.81   C 905.38 460.67 960.51 428.04 1017.23 414.48   Q 1040.36 408.95 1062.37 408.91   Q 1132.63 408.80 1154.08 408.90   A 0.44 0.43 7.9 0 0 1154.50 408.59   Q 1159.59 390.76 1162.56 377.83   Q 1164.88 367.79 1163.35 357.92   C 1161.34 344.84 1151.19 337.39 1138.51 335.22   C 1133.35 334.33 1125.29 333.65 1118.47 333.65   Q 1025.87 333.68 979.51 333.65   Z   M 1128.66 505.14   A 0.42 0.42 0.0 0 0 1128.26 504.61   Q 1086.79 504.81 1047.23 504.59   Q 1017.51 504.43 993.47 521.96   C 979.96 531.80 968.82 546.27 964.46 562.40   C 955.99 593.72 975.57 617.71 1007.50 617.53   Q 1007.96 617.53 1097.88 617.55   A 0.81 0.81 0.0 0 0 1098.66 616.95   L 1128.66 505.14   Z"></path>
  <path fill="#000066" d="   M 1614.64 236.31   A 0.21 0.20 8.3 0 1 1614.84 236.57   L 1588.90 333.33   A 0.44 0.42 -81.8 0 1 1588.49 333.65   Q 1481.56 333.68 1449.02 333.65   C 1430.31 333.63 1413.59 342.66 1406.50 360.23   Q 1404.36 365.51 1404.43 369.40   C 1404.63 381.28 1416.56 391.37 1425.61 397.69   C 1443.66 410.30 1467.82 422.31 1484.65 431.65   C 1501.73 441.14 1519.18 452.14 1533.06 464.48   Q 1546.30 476.27 1554.08 487.99   C 1572.79 516.19 1575.31 548.91 1566.90 581.58   Q 1560.77 605.35 1550.81 625.73   Q 1518.80 691.33 1448.32 708.76   C 1427.78 713.84 1407.75 714.98 1384.15 714.95   Q 1343.31 714.90 1233.66 714.94   A 0.29 0.28 -82.8 0 1 1233.39 714.58   L 1259.32 617.90   A 0.48 0.47 7.0 0 1 1259.78 617.55   Q 1333.62 617.53 1403.55 617.53   C 1417.87 617.54 1433.34 616.09 1445.95 608.92   C 1456.39 602.99 1461.45 591.40 1463.92 579.95   C 1466.34 568.77 1460.56 558.50 1452.27 550.76   Q 1440.71 539.98 1424.15 530.62   Q 1402.31 518.28 1391.39 512.40   C 1370.70 501.23 1351.38 488.72 1334.27 473.14   Q 1321.14 461.19 1312.06 446.36   C 1296.62 421.14 1294.52 393.19 1301.62 364.90   C 1307.20 342.68 1316.35 320.99 1330.06 303.02   C 1346.25 281.78 1368.73 264.70 1392.83 253.60   Q 1430.19 236.40 1472.04 236.34   Q 1563.04 236.21 1614.64 236.31   Z"></path>
  <path fill="#000066" d="   M 1671.14 714.94   L 1566.49 714.94   A 0.34 0.34 0.0 0 1 1566.16 714.51   L 1690.67 236.54   A 0.34 0.34 0.0 0 1 1691.00 236.29   L 1795.65 236.29   A 0.34 0.34 0.0 0 1 1795.98 236.72   L 1671.47 714.69   A 0.34 0.34 0.0 0 1 1671.14 714.94   Z"></path>
  <path fill="#000066" d="   M 2046.84 617.48   A 0.26 0.26 0.0 0 1 2047.10 617.81   L 2021.12 714.66   A 0.32 0.31 -82.8 0 1 2020.82 714.90   Q 1963.37 715.00 1927.77 714.85   C 1887.34 714.68 1846.21 703.12 1814.05 678.01   C 1788.93 658.40 1771.23 631.53 1761.90 601.11   C 1748.35 556.97 1752.65 509.70 1765.72 465.98   C 1784.50 403.21 1820.86 345.63 1871.94 304.46   C 1929.13 258.35 2000.08 236.62 2073.26 236.34   Q 2107.20 236.21 2138.83 236.30   A 0.28 0.28 0.0 0 1 2139.10 236.65   L 2113.16 333.34   A 0.43 0.42 6.3 0 1 2112.76 333.65   Q 2081.90 333.67 2075.08 333.63   Q 2048.43 333.45 2037.45 334.62   C 1963.98 342.45 1897.64 391.03 1872.12 461.20   Q 1863.51 484.89 1861.53 511.23   C 1858.74 548.29 1872.52 582.46 1904.26 602.18   Q 1928.70 617.37 1958.56 617.46   Q 2030.09 617.67 2046.84 617.48   Z"></path>
  <path fill="#000066" d="   M 2448.63 236.32   A 0.21 0.20 8.3 0 1 2448.83 236.58   L 2422.88 333.34   A 0.44 0.42 -81.8 0 1 2422.47 333.66   Q 2315.53 333.68 2282.99 333.64   C 2264.28 333.62 2247.56 342.65 2240.47 360.22   Q 2238.33 365.50 2238.40 369.39   C 2238.60 381.27 2250.53 391.36 2259.58 397.68   C 2277.63 410.30 2301.79 422.31 2318.62 431.65   C 2335.70 441.14 2353.15 452.14 2367.02 464.49   Q 2380.26 476.28 2388.04 488.00   C 2406.75 516.20 2409.27 548.92 2400.85 581.59   Q 2394.72 605.36 2384.76 625.74   Q 2352.74 691.34 2282.26 708.76   C 2261.72 713.84 2241.69 714.98 2218.09 714.95   Q 2177.25 714.90 2067.59 714.93   A 0.29 0.28 -82.8 0 1 2067.32 714.57   L 2093.26 617.89   A 0.48 0.47 7.0 0 1 2093.72 617.54   Q 2167.57 617.52 2237.50 617.53   C 2251.82 617.54 2267.29 616.09 2279.90 608.92   C 2290.34 602.99 2295.40 591.40 2297.87 579.95   C 2300.29 568.77 2294.51 558.50 2286.22 550.76   Q 2274.67 539.98 2258.11 530.62   Q 2236.27 518.28 2225.35 512.39   C 2204.66 501.22 2185.34 488.71 2168.23 473.13   Q 2155.10 461.18 2146.02 446.35   C 2130.58 421.12 2128.48 393.17 2135.59 364.88   C 2141.17 342.66 2150.32 320.97 2164.03 303.00   C 2180.23 281.76 2202.71 264.69 2226.81 253.59   Q 2264.17 236.39 2306.02 236.33   Q 2397.03 236.21 2448.63 236.32   Z"></path>
</svg>
