<?xml version="1.0" encoding="utf-8"?>
<!-- Generator: Adobe Illustrator 19.2.1, SVG Export Plug-In . SVG Version: 6.00 Build 0)  -->
<svg version="1.1" id="layer" xmlns="http://www.w3.org/2000/svg" xmlns:xlink="http://www.w3.org/1999/xlink" x="0px" y="0px"
	 viewBox="0 0 652 652" style="enable-background:new 0 0 652 652;" xml:space="preserve">
<style type="text/css">
	.st0{fill:#1469F2;}
</style>
<g>
	<path class="st0" d="M74.8,284.4c0-0.1,0.1-0.4,1.3-0.3c11.7,0.5,40.4,2.5,71.9,10.7c41,10.7,56.9,20.1,43.8,22.8
		c-13,2.7-63.5,1.4-117.5,35.8c-3.8,2.4-9.4,5.5-23.5,1.2c-5.4-1.6-11.9-3.9-19.6-7.9c-33.2-17.2,59.5-29,75.9-31.3
		c18.8-2.6,37.7-4.2,20.7-13.4c-4.1-2.2-14.8-8.1-51.7-16.8C76.1,285.2,74.7,284.9,74.8,284.4"/>
	<path class="st0" d="M295.5,291.4c1-3.2,2.8-5,9.9-5h18.8c11.7,0,19.4,2.2,23.4,6.6c2.6,2.9,3.7,6.7,3.2,11.7
		c-1.2,12-7.4,18.9-20.8,23.1l-0.6,0.2l9.3,24.4c0.3,0.8-0.3,1.6-1.1,1.6H326c-3.2,0-5.9-1.9-6.8-4.7l-7-18.4l-11.4,0l-6.6,21.3
		c-0.3,0.9-1.3,1.7-2.3,1.7h-14.3c-0.8,0-1.3-0.7-1.1-1.5L295.5,291.4z M310.7,299.4l-5.8,18.6l11,0c8.5,0,15.8,0,16.9-11
		c0.2-2.1-0.2-3.6-1.3-4.8c-1.8-2-5.3-2.8-11.5-2.8H310.7z"/>
	<path class="st0" d="M445.2,355c-9,0-16.9-3.3-21.1-8.8c-3.2-4.3-4.1-9.7-2.4-15.7l3.5-12.3c6.9-24.1,17.8-32.6,41.8-32.6h1
		c9,0,16.9,3.3,21.1,8.8c3.2,4.3,4.1,9.7,2.4,15.7l-3.5,12.3c-6.9,24.1-14.2,32.6-41.8,32.6H445.2z M463.1,299.9
		c-10.1,0.2-16.1,5.7-19.6,17.9l-3.1,11.1c-0.4,1.7-0.6,3.3-0.5,4.6c0.5,4.5,4,6.9,10.3,7c10.1-0.2,16.2-5.7,19.6-17.9l3.1-11.1
		c0.4-1.7,0.6-3.3,0.5-4.6C472.9,302.4,469.4,300.1,463.1,299.9L463.1,299.9L463.1,299.9z"/>
	<path class="st0" d="M501.5,354c1,0,2-0.8,2.3-1.7l8.4-27c0.9,0,1.7,0.5,2.1,1.3l11.9,23.1c1.3,2.6,4,4.2,6.9,4.2h12.4
		c0.8,0,1.4-0.9,1-1.6l-15-29.3c-0.4-0.7-0.2-1.6,0.4-2.1l36-33.2c0.5-0.5,0.2-1.4-0.5-1.4h-14.6c-2.4,0-4.8,1-6.5,2.7l-28.5,26.6
		c-0.8,0.7-1.8,1.1-2.8,1.1l8.9-28.9c0.2-0.8-0.4-1.6-1.2-1.6h-14.3c-1,0-1.9,0.7-2.2,1.6l-20,64.6c-0.2,0.7,0.3,1.5,1.1,1.5H501.5z
		"/>
	<path class="st0" d="M610.4,299.6l-14.5,0c-5.4,0-10.5,0.9-11.1,7.2c-0.3,2.6,1.8,3.9,5.8,5.6l12,4.3c6.8,2.4,10.4,7.9,9.5,14.8
		c-2.2,18.8-15.9,22.6-35.7,22.6H554c-0.9,0-1.7-0.8-1.6-1.8c1.3-11.7,13.5-11.4,13.5-11.4h14.7c7.9,0,12.2-3,12.8-9.1
		c0.3-2.9-1.5-5.1-5.8-7.1l-11.9-4.3c-6.5-2.7-9.9-7.4-9.3-13.1c1.9-17.5,14.4-21,34-21h22.1c0.9,0,1.6,0.8,1.4,1.7
		C623.4,291.7,620.7,299.6,610.4,299.6"/>
	<path class="st0" d="M374,355c-9,0-16.9-3.3-21.1-8.8c-3.2-4.3-4.1-9.7-2.4-15.7l3.5-12.3c6.9-24.1,17.8-32.6,41.8-32.6h1
		c9,0,16.9,3.3,21.1,8.8c3.2,4.3,4.1,9.7,2.4,15.7l-3.5,12.3C410,346.4,402.7,355,375,355H374z M391.9,299.9
		c-10.1,0.2-16.1,5.7-19.6,17.9l-3.1,11.1c-0.4,1.7-0.6,3.3-0.5,4.6c0.5,4.5,4,6.9,10.3,7c10.1-0.2,16.2-5.7,19.6-17.9l3.1-11.1
		c0.4-1.7,0.6-3.3,0.5-4.6C401.7,302.4,398.3,300.1,391.9,299.9L391.9,299.9L391.9,299.9z"/>
	<path class="st0" d="M259,286.4c10,0,17.4,2.3,21.2,6.5c2.3,2.6,3.3,5.8,2.9,9.7c-0.8,8.1-4.6,12.5-14.1,16.4l-1.1,0.4l1,0.6
		c4.1,2.4,6.3,7,5.8,12c-2.1,21.9-20.5,21.9-39.9,21.9h-15.7c-3.4,0-7.3,0.2-8.7-1.1c-1.9-2-0.8-5.2-0.8-5.2l17.4-56.2
		c1-3.2,2.8-5,9.9-5L259,286.4z M242.3,341c6.5,0,14.4,0.6,15.1-8.1c0.2-2.1-0.4-3.8-1.5-5.1c-1.6-1.8-4.6-2.3-8.7-2.3h-12.8
		l-4.8,15.6H242.3z M238.1,313.5h12.8c8.3,0,13.8-1,14.6-7.8c0.2-1.7-0.1-3.1-1-4.1c-1.7-1.9-5.6-2.1-13.1-2.1l-8.9,0L238.1,313.5z"
		/>
</g>
</svg>
