<?xml version="1.0" encoding="UTF-8" standalone="no"?>
<svg xmlns="http://www.w3.org/2000/svg" version="1.1" viewBox="0.00 0.00 1920.00 1080.00">
  <path fill="#272525" d="   M 1084.66 276.63   L 1079.31 273.13   A 0.40 0.40 0.0 0 0 1078.75 273.26   L 1074.51 280.61   A 0.25 0.25 0.0 0 1 1074.04 280.49   Q 1073.81 273.65 1070.97 267.15   A 1.07 1.07 0.0 0 0 1069.53 266.61   Q 1065.81 268.35 1059.98 271.74   C 1057.29 273.30 1054.40 274.23 1051.33 273.28   Q 1045.43 271.47 1046.76 264.55   Q 1048.25 256.85 1048.69 254.60   A 1.64 1.63 16.3 0 0 1047.68 252.77   Q 1041.44 250.30 1034.96 247.79   Q 1033.06 247.06 1030.69 246.69   A 1.25 1.23 -58.4 0 0 1029.76 246.92   C 1026.95 249.04 1024.65 255.85 1020.97 263.91   Q 1019.33 267.50 1015.98 268.90   A 3.41 3.16 28.8 0 1 1015.10 269.12   C 1011.41 269.52 1008.34 269.86 1005.96 267.11   Q 1002.98 263.66 1001.35 261.45   C 998.80 257.99 999.55 253.49 1000.32 248.97   C 1001.61 241.44 1003.06 237.25 1009.85 233.27   C 1011.96 232.03 1019.55 228.10 1017.87 224.57   Q 1016.09 220.85 1013.48 219.04   A 3.47 3.46 51.3 0 0 1010.23 218.68   Q 1007.73 219.69 1004.64 220.90   Q 1003.10 221.50 1002.92 223.99   Q 1002.00 237.01 1001.41 238.89   C 998.96 246.75 988.03 252.03 984.95 240.39   Q 983.40 234.56 982.63 227.04   A 1.42 1.41 4.9 0 0 981.60 225.83   L 981.22 225.72   A 0.46 0.45 -86.2 0 0 980.65 226.22   Q 983.34 246.09 967.53 257.57   C 965.96 258.71 963.80 259.74 961.89 260.53   A 0.94 0.94 0.0 0 0 961.30 261.46   L 963.83 306.53   A 0.62 0.62 0.0 0 0 964.47 307.12   Q 970.64 306.92 975.18 310.33   A 1.66 1.64 -28.4 0 0 976.31 310.66   C 984.61 309.98 991.54 311.68 999.79 314.38   A 5.34 5.22 -35.2 0 0 1001.46 314.65   L 1005.13 314.65   A 2.40 2.28 -35.2 0 1 1005.81 314.75   C 1009.35 315.82 1013.41 318.31 1017.94 318.97   A 1.54 1.51 -18.2 0 1 1018.81 319.40   C 1022.52 323.09 1024.94 323.57 1030.41 325.57   Q 1033.01 326.52 1035.15 329.71   A 1.11 1.09 -13.1 0 0 1035.94 330.19   C 1038.78 330.49 1039.75 331.08 1042.38 332.80   Q 1042.89 333.14 1046.09 334.67   Q 1052.36 337.69 1055.65 341.67   Q 1061.65 348.92 1064.78 352.41   A 0.75 0.68 -87.1 0 1 1064.87 352.52   L 1071.62 362.95   A 4.81 4.75 25.1 0 1 1072.35 364.93   C 1073.07 370.25 1073.17 372.02 1074.25 377.16   Q 1075.37 382.45 1074.15 387.77   A 2.33 2.25 46.7 0 0 1074.14 388.74   C 1074.81 391.87 1073.65 394.11 1072.91 396.94   A 3.45 3.35 49.1 0 0 1072.84 398.18   Q 1074.13 407.51 1069.13 414.00   A 1.79 1.78 -30.1 0 0 1068.78 415.30   Q 1069.19 418.47 1066.11 420.96   A 2.22 2.21 -12.5 0 0 1065.34 422.16   C 1064.15 426.82 1064.45 430.54 1064.49 435.00   C 1064.55 443.12 1056.93 448.09 1049.45 445.87   A 1.76 1.74 -43.4 0 0 1048.48 445.85   Q 1040.84 447.77 1038.05 440.63   A 0.38 0.38 0.0 0 0 1037.32 440.74   Q 1037.02 445.64 1038.25 451.21   Q 1038.82 453.77 1038.33 457.06   A 2.26 2.23 70.4 0 1 1037.80 458.20   C 1029.15 467.97 1025.65 481.04 1021.08 492.18   A 2.52 2.52 0.0 0 0 1020.90 493.26   Q 1021.10 496.45 1020.94 498.42   A 2.34 1.74 -83.2 0 1 1018.83 500.64   Q 1018.57 500.59 1016.99 501.28   A 0.87 0.87 0.0 0 0 1016.47 502.12   Q 1016.82 509.40 1009.06 512.54   Q 1005.60 513.95 1003.44 513.79   A 0.53 0.53 0.0 0 1 1002.96 513.13   Q 1005.79 502.37 1015.32 498.16   A 1.54 1.54 0.0 0 0 1016.04 497.50   Q 1019.91 490.41 1021.24 485.97   Q 1026.71 467.78 1036.13 455.37   A 1.74 1.69 -25.3 0 0 1036.48 454.43   Q 1036.80 449.61 1034.98 446.02   A 2.69 2.65 29.0 0 1 1034.70 445.07   Q 1034.16 439.27 1035.87 433.99   A 2.30 2.26 -42.6 0 0 1035.93 432.84   Q 1035.27 429.62 1036.83 427.82   A 0.43 0.43 0.0 0 1 1037.58 428.11   Q 1037.54 429.48 1037.76 429.86   A 0.67 0.67 0.0 0 0 1038.77 430.05   Q 1040.48 428.64 1042.55 428.85   A 0.71 0.70 -61.6 0 1 1042.92 430.10   C 1037.53 434.49 1039.34 442.47 1046.26 443.61   Q 1053.07 444.73 1053.90 437.83   A 0.84 0.84 0.0 0 1 1055.51 437.62   Q 1057.15 441.65 1053.55 444.04   A 0.35 0.35 0.0 0 0 1053.85 444.66   Q 1060.28 442.75 1061.83 436.91   C 1062.90 432.90 1061.90 427.50 1062.63 423.24   A 0.30 0.30 0.0 0 0 1062.12 422.98   Q 1060.05 425.13 1060.16 428.12   A 0.25 0.25 0.0 0 1 1059.70 428.27   Q 1057.42 424.76 1060.60 422.12   Q 1063.22 419.93 1064.78 418.39   A 2.87 2.48 -38.1 0 0 1065.41 415.17   Q 1064.81 414.12 1063.12 413.02   A 0.81 0.80 -80.0 0 1 1062.77 412.51   Q 1062.72 412.30 1062.72 412.19   A 1.25 1.15 3.5 0 1 1064.06 411.10   Q 1065.60 411.21 1066.67 412.40   A 0.48 0.48 0.0 0 0 1067.41 412.38   Q 1070.05 408.95 1070.40 404.69   A 0.26 0.26 0.0 0 0 1069.91 404.54   Q 1067.48 408.79 1062.58 408.04   C 1058.92 407.47 1057.43 404.53 1058.86 401.10   A 0.62 0.61 -33.8 0 1 1060.04 401.33   Q 1060.03 405.04 1062.88 405.48   C 1066.51 406.04 1068.74 403.57 1069.39 400.23   A 0.49 0.48 80.2 0 0 1068.67 399.72   Q 1066.82 400.82 1065.38 400.29   A 0.73 0.73 0.0 0 1 1065.52 398.89   Q 1069.79 398.18 1071.08 393.31   C 1072.62 387.52 1071.60 380.07 1063.42 381.90   A 0.84 0.84 0.0 0 1 1062.42 381.30   L 1062.34 381.00   A 0.57 0.56 -19.6 0 1 1062.66 380.34   Q 1067.71 378.09 1071.26 381.51   A 0.35 0.34 25.0 0 0 1071.84 381.30   Q 1072.42 376.20 1070.54 373.03   A 1.59 1.57 -55.9 0 1 1070.34 371.95   C 1070.66 370.01 1069.40 367.58 1067.13 367.49   Q 1064.01 367.38 1061.75 369.25   C 1060.12 370.61 1059.73 373.91 1059.21 375.20   A 0.69 0.68 -6.6 0 0 1060.24 376.01   Q 1061.42 375.20 1062.57 375.75   A 0.70 0.70 0.0 0 1 1062.62 376.98   Q 1059.58 378.80 1061.00 382.20   A 0.70 0.70 0.0 0 1 1060.71 383.07   Q 1058.45 384.42 1057.83 387.27   A 1.80 1.73 -17.3 0 1 1057.35 388.14   Q 1054.64 390.84 1050.78 391.50   A 0.54 0.54 0.0 0 1 1050.39 390.51   C 1054.75 387.67 1058.32 385.14 1057.87 379.36   A 0.81 0.81 0.0 0 0 1057.01 378.62   L 1056.36 378.65   A 0.46 0.46 0.0 0 1 1055.91 378.00   Q 1056.98 375.69 1056.91 371.93   A 0.40 0.40 0.0 0 0 1056.17 371.72   L 1054.82 373.77   A 0.70 0.70 0.0 0 1 1053.55 373.21   C 1054.55 369.35 1055.83 362.30 1053.38 359.38   A 0.40 0.40 0.0 0 0 1052.74 359.42   Q 1051.55 361.31 1052.01 363.71   A 1.45 1.44 53.7 0 1 1051.87 364.64   L 1047.41 373.15   A 0.89 0.88 -73.9 0 1 1046.57 373.62   L 1046.29 373.60   A 0.59 0.59 0.0 0 1 1045.80 372.75   Q 1051.07 362.42 1049.80 351.52   A 0.82 0.81 -15.0 0 1 1050.29 350.68   Q 1054.41 348.92 1057.09 352.59   A 0.35 0.34 84.1 0 1 1056.67 353.11   Q 1055.37 352.51 1053.63 352.38   A 1.56 1.56 0.0 0 0 1052.00 354.30   Q 1052.42 356.01 1053.58 357.26   A 2.00 1.98 79.8 0 0 1054.29 357.76   Q 1056.06 358.52 1056.44 359.36   Q 1058.54 364.00 1057.32 369.42   A 0.32 0.31 66.3 0 0 1057.90 369.65   Q 1061.15 363.87 1068.35 365.33   A 0.37 0.37 0.0 0 0 1068.77 364.83   C 1067.18 360.98 1064.17 358.50 1059.87 360.37   A 1.14 1.14 0.0 0 1 1058.28 359.39   L 1058.26 359.00   A 1.44 1.44 0.0 0 1 1059.22 357.56   Q 1061.90 356.61 1063.98 357.36   A 0.36 0.36 0.0 0 0 1064.44 356.90   Q 1063.75 354.92 1061.24 354.36   A 0.97 0.95 -83.6 0 1 1060.50 353.42   L 1060.50 352.88   A 0.93 0.91 27.9 0 0 1060.33 352.35   C 1058.63 349.82 1052.20 344.39 1049.47 348.36   A 0.81 0.81 0.0 0 1 1048.00 348.01   Q 1047.43 343.95 1044.50 341.92   A 0.34 0.34 0.0 0 0 1043.97 342.22   L 1044.22 346.78   A 0.69 0.69 0.0 0 1 1042.99 347.24   C 1041.74 345.62 1041.39 343.29 1039.94 339.07   Q 1039.34 337.35 1037.43 335.06   A 0.51 0.50 21.8 0 0 1036.54 335.44   C 1037.13 340.55 1040.40 346.03 1035.54 351.13   A 0.66 0.66 0.0 0 1 1034.43 350.46   C 1036.07 345.57 1037.16 340.95 1033.61 336.58   A 1.83 1.80 -60.9 0 1 1033.23 335.21   Q 1033.88 330.26 1029.43 328.81   A 0.85 0.84 5.3 0 0 1028.32 329.72   Q 1028.58 331.73 1027.94 333.01   A 1.10 1.09 55.6 0 1 1025.87 332.62   C 1025.52 328.99 1023.78 325.67 1019.94 324.87   A 1.87 1.85 72.8 0 1 1018.99 324.36   Q 1016.43 321.82 1010.05 318.67   A 0.48 0.48 0.0 0 0 1009.50 319.43   C 1013.00 323.00 1015.09 326.79 1013.69 331.90   A 0.55 0.55 0.0 0 1 1012.62 331.90   L 1011.16 326.48   A 2.12 2.12 0.0 0 0 1010.57 325.47   Q 1008.68 323.62 1005.27 318.95   Q 1004.47 317.86 1001.37 317.43   A 0.54 0.54 0.0 0 0 1000.77 318.03   Q 1001.06 320.38 999.53 321.24   A 0.61 0.61 0.0 0 1 998.70 321.03   Q 995.81 316.25 994.61 315.66   Q 992.16 314.47 991.36 316.72   A 0.44 0.43 30.3 0 1 990.66 316.90   C 989.16 315.55 987.32 314.21 985.28 314.69   A 0.47 0.47 0.0 0 0 985.00 315.42   C 987.49 318.87 990.14 322.34 988.37 325.91   Q 987.96 326.74 988.58 327.57   Q 991.78 331.92 988.71 335.45   A 0.88 0.88 0.0 0 1 987.31 335.35   L 987.09 335.01   A 1.70 1.70 0.0 0 1 987.08 333.18   Q 987.59 332.38 987.67 331.84   A 1.82 1.80 -52.6 0 0 987.54 330.84   C 985.66 326.60 983.32 326.00 980.62 323.51   A 0.45 0.45 0.0 0 1 981.05 322.74   L 985.18 323.89   A 0.41 0.40 0.5 0 0 985.68 323.40   Q 984.54 318.78 983.54 317.93   Q 981.01 315.78 978.22 313.34   A 1.12 1.12 0.0 0 0 976.42 314.55   C 976.57 314.99 977.54 315.95 977.85 316.79   Q 978.76 319.24 976.94 321.36   A 1.11 1.11 0.0 0 1 974.99 320.64   Q 974.98 317.32 972.67 314.01   C 970.76 311.29 967.84 311.02 964.91 310.79   A 0.71 0.70 -89.0 0 0 964.15 311.53   L 964.31 314.32   A 1.17 1.17 0.0 0 0 964.96 315.30   Q 973.37 319.42 973.19 328.52   A 1.07 1.06 -85.7 0 1 971.99 329.56   L 971.66 329.50   A 1.38 1.38 0.0 0 1 970.54 328.22   L 970.30 323.94   A 4.89 4.89 0.0 0 0 968.10 320.13   L 966.45 319.05   A 1.18 1.18 0.0 0 0 964.62 320.10   L 970.26 420.76   A 1.75 1.74 4.1 0 0 971.65 422.36   Q 975.06 423.05 975.11 424.98   A 0.51 0.50 86.3 0 1 974.67 425.50   Q 972.43 425.79 970.19 424.36   A 0.56 0.56 0.0 0 0 969.39 424.57   Q 968.17 426.87 963.49 427.95   Q 955.00 429.92 952.52 430.27   Q 941.14 431.89 931.60 427.21   A 0.68 0.68 0.0 0 0 930.64 427.66   Q 929.68 431.47 927.53 433.40   A 1.53 1.50 23.4 0 1 926.51 433.79   C 921.68 433.76 920.31 438.28 915.70 438.48   A 0.07 0.04 -58.3 0 0 915.66 438.50   L 907.48 443.62   A 0.73 0.73 0.0 0 1 906.36 443.01   L 906.36 442.98   A 2.18 2.14 -9.7 0 1 907.35 441.61   Q 916.44 436.13 918.34 425.90   A 0.50 0.49 28.4 0 1 919.19 425.65   L 919.61 426.10   A 1.86 1.83 32.3 0 1 920.03 427.91   Q 918.74 432.07 917.26 434.55   Q 917.04 434.92 917.08 435.60   A 0.57 0.57 0.0 0 0 918.07 435.95   L 919.67 434.17   A 4.41 4.32 7.2 0 1 920.96 433.19   Q 921.06 433.14 923.18 432.62   C 926.39 431.84 928.49 429.01 929.51 425.72   A 2.06 1.98 47.1 0 0 929.53 424.54   Q 928.57 421.17 929.19 417.04   A 0.33 0.32 -22.3 0 0 928.61 416.80   Q 926.42 419.65 924.07 419.44   A 0.55 0.55 0.0 0 1 923.75 418.49   Q 927.72 414.83 929.38 409.95   A 1.46 1.35 58.8 0 0 929.47 409.51   L 934.99 320.60   A 0.91 0.90 26.0 0 0 934.76 319.95   L 930.85 315.78   A 1.27 1.26 64.0 0 0 929.76 315.40   Q 926.32 315.91 925.97 315.19   Q 925.26 313.72 926.14 312.55   A 0.55 0.55 0.0 0 0 925.83 311.68   Q 921.37 310.59 916.77 312.96   A 0.18 0.18 0.0 0 0 916.83 313.30   Q 926.00 314.29 925.50 323.48   A 0.57 0.56 -64.6 0 1 924.52 323.83   Q 923.17 322.38 921.21 319.78   C 918.70 316.44 913.65 315.53 909.42 315.04   A 0.70 0.67 -62.5 0 0 908.89 315.22   L 906.98 317.02   A 1.40 1.40 0.0 0 1 905.32 317.21   L 903.60 316.22   A 1.06 1.05 -40.4 0 0 902.66 316.15   L 897.93 318.07   A 1.05 1.00 -46.3 0 1 897.29 318.10   Q 896.99 318.02 893.78 316.30   C 890.78 314.70 886.43 317.27 883.84 318.94   A 0.70 0.70 0.0 0 0 883.87 320.14   L 890.31 323.86   A 3.61 3.57 7.8 0 1 891.99 326.05   L 892.39 327.53   A 0.67 0.66 -80.1 0 1 891.37 328.25   C 888.20 326.04 884.36 322.90 880.50 323.03   A 2.02 1.91 55.7 0 1 879.54 322.82   Q 877.23 321.67 876.31 321.82   Q 873.01 322.34 869.43 324.89   A 0.36 0.36 0.0 0 0 869.66 325.54   Q 875.69 325.15 879.99 327.66   A 3.00 2.99 -76.5 0 1 881.47 330.08   L 881.54 331.33   A 1.06 1.05 -73.3 0 1 879.86 332.24   Q 873.43 327.47 866.67 328.81   Q 865.68 329.01 865.37 328.66   Q 865.09 328.35 864.98 328.22   A 0.67 0.67 0.0 0 0 864.11 328.09   L 861.66 329.68   A 0.39 0.39 0.0 0 0 861.89 330.40   Q 866.06 330.26 869.25 331.29   C 872.64 332.38 874.95 335.81 874.30 339.24   A 0.87 0.87 0.0 0 1 872.81 339.68   L 868.54 335.12   A 1.58 1.57 -23.2 0 0 867.31 334.63   L 866.12 334.69   A 2.66 2.66 0.0 0 1 864.61 334.33   L 862.18 332.93   A 3.73 3.70 -30.4 0 0 860.26 332.44   Q 858.70 332.47 855.90 332.15   C 850.52 331.54 845.81 333.87 842.22 338.14   A 0.82 0.81 27.8 0 0 842.63 339.45   L 845.89 340.36   A 0.52 0.52 0.0 0 1 846.25 341.00   L 846.16 341.34   A 0.30 0.29 -72.2 0 1 845.78 341.54   C 841.25 340.03 837.45 343.14 832.41 343.75   C 829.68 344.08 826.02 344.58 824.82 346.89   A 0.58 0.58 0.0 0 0 825.37 347.74   C 829.45 347.52 834.77 346.68 836.33 350.85   A 1.05 1.04 5.9 0 1 834.79 352.10   C 832.49 350.63 829.71 349.11 827.38 351.08   A 1.40 1.36 -64.4 0 1 826.49 351.41   Q 824.10 351.43 823.18 349.39   A 0.79 0.78 59.0 0 0 821.99 349.09   Q 819.55 350.95 818.80 354.00   A 0.69 0.68 -87.7 0 0 819.57 354.84   C 822.79 354.34 826.23 355.72 825.96 359.48   A 1.70 1.50 23.7 0 1 823.25 360.34   Q 820.27 357.91 818.11 360.10   A 2.00 1.97 77.5 0 0 817.64 360.85   C 816.47 364.31 813.14 363.13 811.64 365.95   Q 811.23 366.72 809.96 366.45   Q 809.26 366.30 808.10 366.78   Q 802.21 369.17 800.42 376.18   A 0.54 0.54 0.0 0 1 799.51 376.42   L 799.14 376.02   A 2.21 2.21 0.0 0 0 795.92 376.02   Q 793.63 378.47 792.72 381.96   Q 792.18 384.02 790.82 385.41   A 1.60 1.57 -22.6 0 0 790.38 386.45   C 790.21 392.16 794.87 397.23 801.05 395.42   A 1.67 1.66 8.6 0 0 801.99 394.73   L 803.72 392.09   A 0.96 0.95 27.8 0 0 803.28 390.69   C 799.97 389.31 797.79 388.63 795.98 385.73   A 1.29 1.25 -59.8 0 1 795.79 384.96   L 795.89 383.36   A 0.76 0.75 -67.9 0 1 797.14 382.83   Q 799.02 384.47 800.74 386.92   A 3.41 3.14 -25.2 0 0 804.42 388.08   Q 806.17 387.55 807.71 387.69   A 0.56 0.56 0.0 0 1 808.20 388.37   C 807.49 391.51 806.84 394.31 804.80 396.24   C 803.53 397.44 802.03 397.19 800.68 398.25   A 1.29 1.27 67.2 0 0 800.21 399.43   C 800.89 404.30 801.20 408.24 804.79 410.81   A 0.83 0.83 0.0 0 1 805.13 411.57   C 804.68 416.28 807.25 420.22 807.39 424.39   A 3.15 3.01 -55.0 0 0 807.51 425.17   C 808.93 430.50 809.47 433.72 811.60 436.91   A 0.64 0.63 -36.0 0 0 812.52 437.05   Q 814.56 435.45 815.69 432.08   C 816.04 431.05 817.19 429.74 818.21 429.35   A 1.07 1.07 0.0 0 1 819.66 430.42   L 819.36 435.31   A 1.49 1.49 0.0 0 0 821.44 436.77   L 821.75 436.64   A 3.75 3.74 -13.4 0 0 824.01 432.99   L 823.66 426.81   A 0.70 0.70 0.0 0 1 824.55 426.10   L 825.43 426.34   A 0.81 0.80 -64.3 0 0 826.30 426.03   Q 828.30 423.11 827.66 420.21   A 0.86 0.84 -26.7 0 1 827.95 419.36   C 831.41 416.51 835.08 412.98 834.83 408.18   A 0.49 0.48 -17.8 0 0 834.08 407.80   L 833.38 408.25   A 1.07 1.07 0.0 0 1 831.79 406.98   Q 833.02 403.65 833.67 401.15   Q 834.35 398.56 831.98 397.95   A 1.42 1.39 41.0 0 0 831.16 398.00   Q 830.24 398.36 830.22 398.36   A 1.73 1.59 -65.5 0 1 829.34 395.66   Q 831.04 393.38 832.61 390.89   A 0.89 0.89 0.0 0 0 831.37 389.66   L 830.79 390.04   A 2.17 2.16 31.1 0 1 829.41 390.38   Q 825.93 390.05 824.29 391.12   A 0.86 0.86 0.0 0 1 823.40 391.14   L 821.88 390.26   A 0.75 0.75 0.0 0 0 820.86 390.53   C 819.00 393.71 815.49 392.26 811.60 391.69   A 1.46 1.44 -16.5 0 1 810.76 391.24   Q 809.59 389.95 810.46 388.18   A 0.86 0.86 0.0 0 1 811.18 387.70   L 813.30 387.59   A 2.45 2.45 0.0 0 0 815.52 385.80   L 815.94 384.29   A 0.43 0.42 -4.2 0 0 815.36 383.79   L 811.56 385.42   A 1.50 1.47 45.7 0 1 810.32 385.39   C 806.07 383.31 801.43 378.30 805.02 373.51   A 0.69 0.69 0.0 0 1 806.25 373.81   Q 806.83 377.17 807.50 378.99   C 808.97 383.02 813.26 382.05 816.33 380.29   A 1.54 1.52 -57.7 0 1 817.14 380.10   L 818.05 380.16   A 0.87 0.86 -74.4 0 0 818.86 379.70   C 821.16 375.43 827.66 373.14 832.95 371.18   Q 835.45 370.25 836.44 368.05   A 1.49 1.29 50.3 0 1 838.99 368.47   Q 839.59 370.20 838.70 371.35   A 0.83 0.83 0.0 0 0 838.63 372.28   L 840.11 374.86   A 0.87 0.74 -67.2 0 1 840.21 375.17   Q 840.88 380.55 840.84 381.77   C 840.76 384.25 839.25 385.97 836.86 384.84   Q 835.67 384.27 835.40 384.29   A 1.39 1.38 58.6 0 0 834.77 386.90   L 836.73 387.94   A 0.99 0.98 30.2 0 1 837.10 389.33   Q 835.20 392.34 834.55 395.27   A 1.31 1.31 0.0 0 0 836.09 396.84   L 836.16 396.83   A 3.55 3.54 -84.8 0 0 838.75 394.66   Q 840.09 391.24 844.91 390.58   A 0.65 0.65 0.0 0 1 845.65 391.20   Q 845.76 394.32 842.93 394.80   A 0.77 0.76 86.8 0 0 842.29 395.52   L 842.17 397.33   A 0.89 0.87 77.8 0 1 841.72 398.05   Q 837.51 400.46 836.78 402.06   C 835.64 404.54 838.53 405.35 840.39 404.96   C 842.38 404.54 843.53 404.69 844.21 402.71   Q 844.66 401.38 844.83 400.02   A 0.96 0.96 0.0 0 1 845.46 399.23   Q 848.37 398.20 852.10 393.88   A 1.06 1.05 -30.8 0 1 853.93 394.34   Q 854.13 395.31 853.45 397.07   A 1.05 1.03 8.7 0 1 852.54 397.73   L 850.68 397.83   A 1.34 1.32 -83.1 0 0 849.48 398.78   Q 847.66 404.66 841.93 407.67   A 1.09 1.09 0.0 0 1 840.88 407.65   L 840.56 407.47   A 0.79 0.79 0.0 0 0 839.46 407.78   C 836.80 412.83 834.99 416.83 831.76 420.30   A 6.12 6.07 67.5 0 0 830.14 424.26   C 830.05 427.66 830.69 431.49 828.77 434.56   A 2.59 2.58 -2.5 0 1 828.18 435.20   Q 822.79 439.19 816.58 439.33   Q 816.19 439.34 815.16 439.87   A 1.09 1.03 -49.9 0 1 814.36 439.96   L 810.70 438.94   A 1.05 1.00 78.1 0 1 810.13 438.55   C 806.15 433.09 805.23 427.16 802.49 417.79   Q 801.47 414.32 798.20 409.32   A 4.77 4.71 23.7 0 1 797.52 407.61   Q 797.03 404.90 796.28 402.92   Q 795.11 399.85 792.06 399.91   Q 787.98 400.00 785.63 399.38   Q 783.19 398.74 781.81 397.20   A 2.20 1.98 -41.5 0 1 782.15 394.24   Q 783.87 392.72 786.05 392.31   A 2.55 2.44 -10.9 0 0 788.09 389.43   Q 786.89 383.06 790.36 379.39   A 2.45 2.44 -16.8 0 0 790.98 378.24   C 792.47 372.06 799.60 373.76 801.41 368.46   Q 801.94 366.90 803.67 366.23   C 806.75 365.03 810.70 364.86 812.62 360.87   A 2.14 2.09 -5.1 0 1 813.32 360.05   C 817.03 357.47 816.71 353.61 817.49 350.11   A 2.84 2.80 68.9 0 1 817.93 349.10   Q 821.45 344.02 825.82 343.06   C 830.56 342.02 836.13 340.99 838.15 336.91   Q 839.61 333.95 841.66 333.15   Q 845.08 331.80 848.22 329.98   A 2.16 2.15 29.1 0 1 849.28 329.68   C 853.23 329.62 856.79 327.73 859.61 327.41   A 2.26 2.22 25.3 0 0 860.50 327.10   C 863.57 325.23 866.78 321.21 870.77 321.44   A 1.60 1.57 27.7 0 0 871.84 321.12   Q 882.60 312.88 897.28 312.83   A 1.97 1.96 59.2 0 1 898.22 313.07   Q 899.30 313.66 900.14 313.54   A 2.38 2.35 -64.7 0 0 901.07 313.20   Q 903.73 311.53 905.11 311.85   Q 908.97 312.72 911.31 312.77   A 4.74 4.72 -59.7 0 0 913.84 312.10   Q 921.49 307.52 930.98 309.02   Q 932.69 309.29 935.37 307.80   A 1.11 1.10 -13.3 0 0 935.94 306.89   L 938.78 261.29   A 0.74 0.72 14.0 0 0 938.34 260.58   Q 923.86 254.23 919.93 238.93   A 1.81 1.80 -81.3 0 0 919.15 237.86   C 914.42 234.83 911.83 230.12 908.58 225.58   A 1.51 1.50 -34.2 0 0 906.54 225.20   L 898.81 230.20   A 1.16 1.15 -35.6 0 0 898.53 231.88   Q 902.77 237.21 905.41 242.77   C 906.77 245.66 903.85 248.05 901.27 249.54   C 894.86 253.24 891.20 254.74 889.10 257.40   A 3.56 3.34 76.0 0 0 888.58 258.33   Q 886.80 263.21 885.10 267.11   Q 883.42 270.98 879.54 271.49   Q 873.10 272.34 865.26 270.97   C 858.05 269.70 859.62 263.24 859.12 258.27   A 1.46 1.44 -64.8 0 0 858.87 257.56   Q 857.98 256.21 856.02 255.97   Q 850.49 255.28 843.75 255.04   Q 842.32 254.99 841.37 255.28   A 1.19 1.18 82.4 0 0 840.54 256.37   Q 840.30 265.43 840.25 265.96   C 839.94 269.00 837.33 269.56 834.61 269.23   Q 833.07 269.04 825.54 268.35   A 5.33 5.23 35.7 0 0 823.01 268.74   Q 815.49 271.87 809.32 277.73   A 0.22 0.21 -14.1 0 1 808.96 277.52   L 812.07 266.31   A 0.13 0.13 0.0 0 0 811.94 266.14   L 799.54 266.84   A 0.12 0.12 0.0 0 1 799.46 266.62   Q 807.30 260.57 817.91 255.55   A 3.49 3.46 32.0 0 1 819.41 255.21   L 831.20 255.21   A 0.56 0.56 0.0 0 0 831.76 254.62   Q 831.68 253.05 831.94 247.96   Q 832.18 243.39 837.26 243.41   Q 850.11 243.44 863.06 246.63   C 867.39 247.70 868.23 251.40 868.03 255.91   Q 867.81 260.69 867.81 264.59   A 1.36 1.34 -67.4 0 0 868.19 265.53   Q 869.39 266.79 872.47 266.21   A 1.84 1.82 -87.0 0 0 873.87 264.94   Q 874.54 262.67 877.06 253.84   Q 878.07 250.31 882.14 248.39   Q 887.65 245.81 891.14 243.48   A 1.17 1.16 58.5 0 0 891.51 241.93   Q 888.83 237.18 887.49 235.00   C 884.53 230.18 885.11 227.66 890.22 225.74   C 896.81 223.25 901.01 219.38 906.48 214.35   A 4.01 3.78 11.1 0 1 907.67 213.60   C 915.60 210.30 917.18 217.36 919.89 222.51   A 0.32 0.32 0.0 0 0 920.46 222.49   L 923.66 215.58   A 0.56 0.54 34.7 0 0 923.54 214.97   Q 916.83 208.59 911.04 202.22   Q 905.27 195.88 910.87 189.34   Q 921.22 177.25 927.22 172.97   C 928.69 171.92 932.02 171.86 933.94 172.51   Q 940.19 174.61 944.04 179.13   Q 945.05 180.31 945.17 183.27   Q 945.53 191.83 945.42 200.84   A 0.32 0.32 0.0 0 0 946.05 200.94   Q 949.08 191.22 954.63 181.34   C 957.84 175.64 962.21 175.08 968.24 176.57   Q 979.52 179.37 988.03 185.76   C 994.10 190.31 990.65 197.12 986.94 202.22   Q 983.24 207.31 977.19 213.77   A 0.39 0.38 16.5 0 0 977.54 214.41   C 981.38 213.73 988.25 213.17 988.99 218.34   Q 989.77 223.87 991.98 234.24   A 0.38 0.37 48.8 0 0 992.70 234.29   Q 993.14 233.03 993.14 232.07   Q 993.16 225.86 993.88 220.63   C 994.61 215.32 1002.28 213.23 1006.06 211.82   C 1010.82 210.05 1013.38 208.69 1017.24 210.13   C 1021.77 211.81 1025.40 218.02 1027.10 222.37   C 1029.08 227.41 1028.97 230.93 1023.59 233.66   Q 1018.74 236.11 1015.23 237.99   Q 1011.20 240.16 1010.62 244.93   C 1009.99 250.04 1009.17 253.35 1012.10 256.60   A 0.50 0.50 0.0 0 0 1012.94 256.43   Q 1015.77 248.59 1019.10 240.62   C 1021.97 233.76 1031.50 234.19 1036.82 236.79   Q 1046.05 241.31 1056.77 244.92   Q 1059.37 245.79 1060.32 248.75   A 1.42 1.28 41.9 0 1 1060.38 249.31   L 1059.28 259.69   A 0.40 0.39 -11.0 0 0 1059.86 260.08   Q 1064.05 257.79 1068.19 255.18   C 1069.91 254.09 1072.81 254.55 1074.99 255.08   C 1079.34 256.15 1080.15 259.26 1081.95 263.58   Q 1084.82 270.49 1085.18 276.33   A 0.34 0.33 14.8 0 1 1084.66 276.63   Z   M 917.02 190.48   A 0.30 0.29 -80.3 0 0 917.18 190.36   Q 920.90 184.69 925.98 181.89   A 3.14 3.03 -86.2 0 0 927.04 180.93   Q 928.64 178.62 929.25 175.79   A 0.42 0.42 0.0 0 0 928.56 175.38   Q 920.24 182.48 912.99 191.30   A 0.14 0.14 0.0 0 0 913.14 191.52   L 917.02 190.48   Z   M 942.34 214.45   A 0.93 0.92 77.4 0 0 942.88 213.59   Q 942.65 199.65 942.53 184.48   Q 942.50 180.38 939.97 178.93   C 938.61 178.15 937.66 177.34 936.10 176.39   A 0.36 0.36 0.0 0 0 935.57 176.83   C 936.33 178.70 940.53 181.99 936.66 183.64   A 2.13 2.13 0.0 0 0 935.46 184.92   Q 934.46 187.85 934.45 189.04   Q 934.43 190.80 936.34 218.13   A 0.21 0.21 0.0 0 0 936.70 218.27   Q 939.37 215.76 942.34 214.45   Z   M 952.19 212.76   A 0.32 0.31 -83.7 0 0 952.48 212.52   Q 955.69 199.94 962.48 188.78   A 0.29 0.24 85.3 0 1 962.53 188.71   L 964.33 186.68   A 1.22 1.22 0.0 0 0 964.58 185.55   Q 963.50 181.79 960.96 179.54   A 0.89 0.88 -44.2 0 0 959.80 179.53   Q 958.03 181.01 956.76 183.28   Q 948.70 197.74 945.95 212.87   A 0.20 0.20 0.0 0 0 946.16 213.10   L 952.19 212.76   Z   M 971.31 184.22   Q 977.40 185.48 980.19 189.90   A 1.50 1.45 -4.7 0 0 980.92 190.50   C 983.03 191.32 985.69 192.22 987.47 190.22   A 0.97 0.97 0.0 0 0 987.36 188.82   Q 981.02 183.70 973.05 180.94   A 0.74 0.74 0.0 0 0 972.18 181.27   L 970.95 183.40   A 0.55 0.55 0.0 0 0 971.31 184.22   Z   M 931.83 206.45   A 0.50 0.50 0.0 0 0 932.69 206.08   L 931.45 187.84   A 2.09 1.95 -59.6 0 0 931.31 187.21   C 930.25 184.56 927.44 183.67 925.14 185.67   Q 921.72 188.66 919.94 191.26   A 2.18 2.18 0.0 0 0 920.14 193.98   L 931.83 206.45   Z   M 958.89 201.88   A 0.09 0.09 0.0 0 0 958.93 202.00   L 967.25 205.89   A 0.47 0.46 34.8 0 0 967.78 205.80   Q 972.99 200.44 976.68 194.95   Q 979.20 191.20 975.60 188.97   C 973.12 187.43 969.54 185.60 967.10 187.89   C 963.37 191.39 961.22 196.66 958.89 201.88   Z   M 978.95 197.64   A 0.31 0.31 0.0 0 0 978.61 197.73   L 962.24 216.25   A 0.58 0.58 0.0 0 0 962.25 217.02   L 966.10 221.12   A 0.26 0.26 0.0 0 0 966.48 221.12   Q 976.44 211.11 985.22 199.99   A 0.17 0.17 0.0 0 0 985.14 199.72   L 978.95 197.64   Z   M 925.78 212.53   L 929.55 208.81   A 0.55 0.55 0.0 0 0 929.56 208.03   L 924.29 202.69   A 2.86 2.85 -44.6 0 0 920.26 202.67   L 919.77 203.15   A 2.86 2.85 -44.6 0 0 919.74 207.19   L 925.00 212.53   A 0.55 0.55 0.0 0 0 925.78 212.53   Z   M 965.14 208.24   L 959.06 204.73   A 1.14 1.14 0.0 0 0 957.39 205.41   L 955.34 212.81   A 0.86 0.86 0.0 0 0 955.94 213.87   L 959.23 214.78   A 0.42 0.42 0.0 0 0 959.62 214.69   L 961.17 213.24   A 0.37 0.36 -50.3 0 0 961.12 212.67   L 958.74 211.11   A 1.09 1.09 0.0 0 1 958.36 209.74   L 958.50 209.43   A 1.27 1.27 0.0 0 1 960.34 208.91   L 962.65 210.43   A 0.75 0.73 40.0 0 0 963.56 210.36   L 965.21 208.81   A 0.36 0.36 0.0 0 0 965.14 208.24   Z   M 933.02 210.06   A 0.30 0.30 0.0 0 0 932.53 209.84   Q 924.95 216.02 922.65 225.33   A 0.97 0.95 28.1 0 0 922.95 226.28   Q 926.07 229.02 930.46 229.83   A 0.57 0.57 0.0 0 0 931.13 229.31   Q 931.42 225.90 933.32 222.69   A 2.40 2.38 -31.7 0 0 933.65 221.31   L 933.02 210.06   Z   M 1015.24 213.54   L 1015.37 213.07   A 0.82 0.81 -0.4 0 0 1014.35 212.07   Q 1003.49 215.27 998.79 218.10   Q 996.39 219.54 996.38 222.28   Q 996.33 229.72 995.05 235.96   A 0.83 0.83 0.0 0 0 995.99 236.95   L 997.77 236.67   A 1.73 1.73 0.0 0 0 999.22 235.13   Q 999.81 229.03 1000.10 224.37   Q 1000.35 220.29 1002.56 218.87   Q 1005.28 217.12 1013.85 214.91   A 1.97 1.96 0.2 0 0 1015.24 213.54   Z   M 911.04 216.78   A 1.00 0.99 80.7 0 0 909.47 215.65   C 902.60 221.62 897.52 226.69 890.33 228.53   A 1.27 1.27 0.0 0 0 890.19 230.95   Q 892.50 231.84 894.94 231.59   A 0.73 0.73 0.0 0 0 895.60 230.86   Q 895.62 228.98 897.21 227.95   C 898.94 226.84 903.00 224.05 906.27 222.26   Q 909.53 220.47 911.04 216.78   Z   M 950.42 243.33   C 954.14 243.23 956.70 243.16 959.03 245.58   A 0.47 0.47 0.0 0 0 959.65 245.63   Q 965.39 241.35 966.51 234.58   C 968.18 224.45 959.76 215.27 949.67 215.55   C 939.58 215.82 931.67 225.44 933.89 235.46   Q 935.37 242.17 941.33 246.13   A 0.47 0.47 0.0 0 0 941.95 246.04   C 944.14 243.50 946.71 243.43 950.42 243.33   Z   M 979.80 222.62   A 0.92 0.91 -11.8 0 0 980.64 223.16   L 982.83 223.16   A 2.25 2.24 86.7 0 1 985.06 225.15   C 985.72 231.13 986.33 236.28 988.33 241.62   C 989.28 244.16 991.27 245.09 993.71 243.93   A 0.47 0.46 55.9 0 0 993.85 243.19   C 988.25 237.17 987.91 226.08 986.32 219.02   A 2.60 2.57 86.1 0 0 983.85 216.85   L 977.94 216.67   A 0.45 0.45 0.0 0 0 977.51 217.30   L 979.80 222.62   Z   M 960.92 257.32   A 0.46 0.45 -13.9 0 0 961.57 257.71   Q 970.61 253.48 975.15 245.00   Q 981.99 232.25 974.50 217.30   A 0.29 0.29 0.0 0 0 974.02 217.24   L 967.93 224.12   A 0.27 0.26 -35.8 0 0 967.88 224.38   Q 972.61 237.47 962.71 246.80   C 962.24 247.23 961.31 247.69 960.68 248.22   A 0.72 0.70 -22.9 0 0 960.44 248.79   L 960.92 257.32   Z   M 1017.72 232.50   A 2.07 2.06 45.8 0 0 1019.59 232.53   Q 1019.97 232.34 1023.24 230.67   Q 1026.05 229.23 1025.25 226.27   C 1024.72 224.29 1022.93 224.39 1021.41 224.65   A 0.69 0.68 82.3 0 0 1020.85 225.39   Q 1021.14 229.02 1017.60 231.35   A 0.64 0.64 0.0 0 0 1017.65 232.45   L 1017.72 232.50   Z   M 930.81 233.03   A 0.43 0.42 83.4 0 0 930.36 232.67   C 927.14 232.86 920.39 231.62 920.12 227.25   A 0.53 0.53 0.0 0 0 919.37 226.80   Q 917.51 227.67 916.50 230.04   A 2.20 2.19 -55.9 0 0 916.96 232.46   Q 922.97 238.46 931.33 238.35   A 0.28 0.28 0.0 0 0 931.60 238.03   L 930.81 233.03   Z   M 1032.83 242.91   L 1032.30 239.52   A 1.58 1.57 2.8 0 0 1031.14 238.24   Q 1024.60 236.55 1021.75 241.63   Q 1018.66 247.17 1019.21 253.86   A 1.55 1.55 0.0 0 0 1021.57 255.05   L 1021.61 255.02   A 1.80 1.75 -5.0 0 0 1022.32 254.20   C 1024.34 249.59 1026.31 243.28 1031.71 244.05   A 0.99 0.99 0.0 0 0 1032.83 242.91   Z   M 1005.88 255.01   A 4.30 4.28 68.8 0 0 1007.23 251.93   Q 1007.26 247.36 1008.38 241.78   Q 1008.59 240.74 1007.20 239.59   A 0.57 0.56 -51.6 0 0 1006.39 239.69   C 1003.40 243.67 1002.70 250.36 1002.34 255.74   A 1.09 1.09 0.0 0 0 1004.17 256.61   L 1005.88 255.01   Z   M 939.82 248.58   A 0.25 0.25 0.0 0 0 939.70 248.35   Q 935.81 245.87 933.13 241.34   A 0.72 0.70 -18.1 0 0 932.44 241.00   Q 927.92 241.50 923.33 239.84   A 0.21 0.20 -89.5 0 0 923.07 240.10   Q 926.88 252.16 938.84 257.84   A 0.29 0.29 0.0 0 0 939.26 257.60   L 939.82 248.58   Z   M 1052.02 253.86   Q 1054.69 253.84 1056.61 252.84   A 1.20 1.20 0.0 0 0 1057.23 252.03   C 1058.02 248.59 1057.20 247.89 1054.08 246.89   Q 1046.29 244.39 1039.89 241.30   A 1.29 1.29 0.0 0 0 1038.08 242.79   L 1038.60 244.72   A 3.49 3.47 2.0 0 0 1040.84 247.11   Q 1043.50 248.02 1048.24 249.99   Q 1050.85 251.08 1051.36 253.34   A 0.67 0.66 83.1 0 0 1052.02 253.86   Z   M 903.01 244.35   A 0.63 0.63 0.0 0 0 902.45 243.48   L 895.26 243.17   A 1.02 1.02 0.0 0 0 894.27 243.77   Q 893.38 245.69 891.13 246.90   Q 885.13 250.11 881.73 251.78   A 0.77 0.77 0.0 0 0 881.47 252.95   Q 883.21 255.13 886.39 255.54   A 0.99 0.97 22.2 0 0 887.29 255.17   Q 888.63 253.44 889.18 253.15   Q 894.72 250.23 901.22 246.24   Q 902.58 245.41 903.01 244.35   Z   M 835.81 246.94   L 839.20 252.18   A 0.98 0.96 -22.2 0 0 840.22 252.60   Q 843.69 251.87 853.83 252.94   Q 858.13 253.40 859.77 254.42   A 2.29 2.28 -64.5 0 0 863.13 253.23   L 863.41 252.41   A 2.58 2.57 -73.9 0 0 861.56 249.05   Q 848.71 246.12 836.22 246.17   A 0.50 0.50 0.0 0 0 835.81 246.94   Z   M 954.62 342.11   A 0.33 0.33 0.0 0 0 955.26 342.21   L 956.56 338.44   A 0.33 0.33 0.0 0 0 956.58 338.32   L 954.75 247.62   A 0.33 0.33 0.0 0 0 954.39 247.30   L 952.50 247.47   A 0.33 0.33 0.0 0 0 952.20 247.81   L 954.62 342.11   Z   M 944.85 302.54   L 946.96 293.91   A 1.39 1.03 63.2 0 0 947.00 293.68   L 948.99 248.61   A 0.89 0.89 0.0 0 0 948.14 247.68   L 947.76 247.67   A 1.41 1.41 0.0 0 0 946.28 249.03   Q 944.96 283.94 944.44 301.25   Q 944.42 302.16 944.66 302.57   A 0.10 0.10 0.0 0 0 944.85 302.54   Z   M 809.86 263.45   L 815.94 263.29   A 0.38 0.38 0.0 0 1 816.30 263.81   L 813.98 269.98   A 0.23 0.23 0.0 0 0 814.31 270.26   L 822.28 265.66   A 0.71 0.71 0.0 0 0 822.57 264.76   L 819.84 258.42   A 0.84 0.84 0.0 0 0 818.64 258.02   L 809.77 263.14   A 0.17 0.17 0.0 0 0 809.86 263.45   Z   M 833.03 259.38   A 1.65 1.65 0.0 0 0 831.51 258.17   L 825.75 257.92   A 1.52 1.51 84.2 0 0 824.22 259.81   Q 825.31 264.07 829.57 265.91   Q 830.05 266.12 833.70 266.32   A 0.87 0.87 0.0 0 0 834.59 265.22   L 833.03 259.38   Z   M 1015.46 265.69   Q 1013.50 261.39 1009.35 260.04   C 1007.98 259.60 1006.31 260.28 1005.89 261.56   A 1.29 1.25 -49.8 0 0 1005.96 262.54   Q 1008.92 268.22 1015.29 266.10   A 0.30 0.30 0.0 0 0 1015.46 265.69   Z   M 884.02 260.97   L 878.41 261.86   A 0.95 0.95 0.0 0 0 877.66 262.46   L 875.73 267.61   A 0.53 0.52 -68.7 0 0 876.02 268.28   Q 880.70 270.19 882.77 265.53   Q 884.16 262.39 884.41 261.40   A 0.35 0.34 3.2 0 0 884.02 260.97   Z   M 1051.20 270.25   C 1055.03 272.21 1059.96 268.66 1064.29 266.06   A 2.96 2.95 67.1 0 0 1065.62 262.77   L 1065.60 262.70   A 1.82 1.82 0.0 0 0 1063.03 261.54   Q 1060.31 262.89 1055.61 264.85   Q 1052.42 266.18 1050.78 268.64   A 1.12 1.12 0.0 0 0 1051.20 270.25   Z   M 865.98 267.52   Q 864.75 265.25 865.27 262.85   A 0.61 0.61 0.0 0 0 864.35 262.21   L 863.08 263.03   A 1.94 1.93 -22.4 0 0 862.24 265.03   Q 862.78 267.70 865.53 268.15   A 0.43 0.43 0.0 0 0 865.98 267.52   Z   M 935.45 314.67   L 935.64 311.49   A 0.64 0.63 82.9 0 0 934.81 310.84   Q 931.27 311.96 931.11 312.09   A 0.27 0.27 0.0 0 0 931.26 312.57   Q 933.66 312.76 934.87 314.81   A 0.31 0.31 0.0 0 0 935.45 314.67   Z   M 1040.63 335.09   L 1043.00 338.75   A 1.69 1.66 80.2 0 0 1043.99 339.46   Q 1047.65 340.41 1048.54 343.34   A 1.38 1.37 89.2 0 0 1049.50 344.28   L 1054.60 345.70   A 0.44 0.44 0.0 0 0 1055.11 345.10   C 1053.70 341.96 1051.13 341.73 1048.99 340.04   C 1047.16 338.59 1044.23 336.12 1040.98 334.69   A 0.28 0.27 -4.3 0 0 1040.63 335.09   Z   M 815.87 389.25   Q 821.67 387.10 826.62 380.99   A 0.39 0.38 -53.8 0 1 827.13 380.91   L 827.37 381.07   A 0.87 0.87 0.0 0 1 827.62 382.27   L 824.85 386.49   A 0.46 0.46 0.0 0 0 825.25 387.20   C 831.25 386.93 834.67 380.04 835.67 374.92   A 0.87 0.87 0.0 0 0 834.38 374.00   L 821.34 381.53   A 1.75 1.68 87.8 0 0 820.62 382.34   Q 819.02 386.00 815.60 388.77   A 0.28 0.28 0.0 0 0 815.87 389.25   Z   M 949.80 401.01   L 948.20 409.58   A 0.26 0.24 -42.6 0 0 948.19 409.70   L 948.26 424.36   A 0.93 0.92 5.2 0 0 949.02 425.27   L 949.42 425.35   A 1.14 1.14 0.0 0 0 950.76 424.36   C 951.16 420.89 951.66 417.51 951.30 414.21   Q 950.49 406.90 950.12 401.03   A 0.16 0.16 0.0 0 0 949.80 401.01   Z   M 957.88 422.67   L 959.78 422.59   A 0.26 0.26 0.0 0 0 960.03 422.32   L 959.95 420.55   A 14.69 1.16 87.6 0 0 958.18 405.93   L 958.08 405.93   A 14.69 1.16 87.6 0 0 957.54 420.66   L 957.61 422.42   A 0.26 0.26 0.0 0 0 957.88 422.67   Z   M 940.98 413.55   L 939.32 417.04   A 1.41 1.39 -32.5 0 0 939.18 417.65   L 939.18 424.24   A 0.99 0.98 0.0 0 0 940.17 425.22   L 940.52 425.22   A 1.17 1.16 0.0 0 0 941.69 424.06   L 941.69 413.71   A 0.37 0.37 0.0 0 0 940.98 413.55   Z"></path>
  <rect fill="#272525" x="-1.38" y="-5.41" transform="translate(929.30,221.36) rotate(25.9)" width="2.76" height="10.82" rx="1.32"></rect>
  <path fill="#272525" d="   M 973.97 240.10   Q 971.54 247.20 965.24 251.53   Q 964.48 252.06 963.66 251.60   A 1.35 1.27 -48.4 0 1 963.60 249.42   Q 969.37 244.94 971.33 239.20   Q 973.30 233.46 971.48 226.39   A 1.35 1.27 86.2 0 1 972.87 224.70   Q 973.80 224.84 974.08 225.72   Q 976.40 233.00 973.97 240.10   Z"></path>
  <rect fill="#272525" x="-1.41" y="-6.38" transform="translate(933.46,248.46) rotate(-43.0)" width="2.82" height="12.76" rx="1.37"></rect>
  <path fill="#272525" d="   M 918.94 333.84   Q 919.08 331.24 916.87 326.98   C 914.17 321.77 909.37 324.90 906.69 321.35   A 1.44 1.44 0.0 0 1 907.91 319.05   Q 911.99 319.25 915.02 321.69   Q 920.56 326.17 920.21 333.32   A 0.14 0.12 -26.0 0 1 920.17 333.41   L 919.46 334.08   A 0.31 0.31 0.0 0 1 918.94 333.84   Z"></path>
  <path fill="#272525" d="   M 993.64 319.71   C 996.30 321.61 996.48 323.54 997.78 326.68   C 999.27 330.28 999.17 334.53 997.66 337.73   A 0.83 0.83 0.0 0 1 996.09 337.20   Q 997.80 329.04 993.14 323.29   Q 992.55 322.56 992.96 319.99   A 0.43 0.43 0.0 0 1 993.64 319.71   Z"></path>
  <path fill="#272525" d="   M 1002.47 321.97   Q 1008.15 326.89 1007.62 334.49   Q 1007.51 336.22 1006.34 337.35   A 1.23 1.23 0.0 0 1 1004.27 336.26   C 1005.28 330.59 1003.85 327.50 1001.89 322.37   A 0.36 0.36 0.0 0 1 1002.47 321.97   Z"></path>
  <path fill="#272525" d="   M 909.20 334.66   A 0.60 0.60 0.0 0 1 908.27 335.16   L 907.64 334.74   A 2.06 2.06 0.0 0 1 906.71 332.93   Q 906.92 328.55 902.27 327.18   A 0.62 0.61 81.1 0 0 901.59 328.12   Q 902.88 329.98 902.50 331.81   A 0.81 0.81 0.0 0 1 900.98 332.00   L 898.22 326.36   A 2.69 2.62 4.3 0 0 897.27 325.28   L 894.87 323.71   A 1.00 1.00 0.0 0 1 895.44 321.87   Q 899.86 321.97 904.47 324.98   C 908.99 327.93 909.27 329.18 909.20 334.66   Z"></path>
  <path fill="#272525" d="   M 978.15 326.47   A 0.38 0.38 0.0 0 1 978.82 326.19   Q 980.71 328.35 980.86 332.00   A 1.99 1.98 74.0 0 1 979.87 333.82   L 979.75 333.88   A 0.76 0.75 -16.5 0 1 978.63 333.28   L 978.15 326.47   Z"></path>
  <path fill="#272525" d="   M 1018.59 327.38   L 1018.62 327.34   A 0.87 0.87 0.0 0 1 1020.10 327.29   C 1022.53 331.00 1023.40 336.77 1021.12 340.82   A 0.51 0.51 0.0 0 1 1020.17 340.52   Q 1020.93 334.34 1018.53 329.71   A 2.41 2.41 0.0 0 1 1018.59 327.38   Z"></path>
  <path fill="#272525" d="   M 886.57 329.46   Q 892.96 332.28 894.56 339.17   Q 894.94 340.74 894.21 342.06   A 1.14 1.14 0.0 0 1 892.07 341.66   C 891.42 336.34 889.31 333.99 886.17 329.97   A 0.34 0.33 -6.9 0 1 886.57 329.46   Z"></path>
  <path fill="#272525" d="   M 1011.73 334.95   A 0.33 0.33 0.0 0 1 1012.35 334.83   Q 1013.58 337.00 1013.08 340.14   A 1.73 1.72 85.5 0 1 1011.91 341.51   L 1011.80 341.55   A 0.66 0.66 0.0 0 1 1010.95 340.84   L 1011.73 334.95   Z"></path>
  <path fill="#272525" d="   M 860.35 335.79   A 0.26 0.26 0.0 0 1 860.35 336.29   Q 854.30 337.53 850.17 339.94   A 0.32 0.31 -58.6 0 0 850.31 340.53   C 854.65 340.76 860.19 343.45 860.61 348.32   A 0.39 0.39 0.0 0 1 859.93 348.62   L 856.67 345.14   A 1.06 1.02 -12.5 0 0 856.21 344.86   L 849.50 342.87   A 0.84 0.83 -75.3 0 1 848.93 341.88   Q 849.18 340.80 848.22 340.37   A 1.12 1.04 32.1 0 1 847.77 338.68   C 850.96 335.11 855.92 334.87 860.35 335.79   Z"></path>
  <path fill="#272525" d="   M 879.56 335.79   A 0.39 0.38 -12.9 0 1 879.95 335.17   Q 882.75 335.86 884.99 338.77   A 2.00 1.98 38.9 0 1 885.22 340.84   L 885.16 340.96   A 0.76 0.76 0.0 0 1 883.89 341.11   L 879.56 335.79   Z"></path>
  <path fill="#272525" d="   M 1030.39 342.23   Q 1030.37 343.45 1029.92 344.87   Q 1028.88 348.14 1027.41 348.48   A 0.42 0.42 0.0 0 1 1026.91 347.98   Q 1027.78 344.13 1028.11 343.13   Q 1028.24 342.75 1028.25 342.20   Q 1028.26 341.65 1028.14 341.26   Q 1027.84 340.25 1027.08 336.38   A 0.42 0.42 0.0 0 1 1027.59 335.89   Q 1029.05 336.27 1030.00 339.57   Q 1030.41 341.00 1030.39 342.23   Z"></path>
  <path fill="#272525" d="   M 860.19 339.06   A 0.27 0.27 0.0 0 1 860.20 338.53   Q 865.22 337.43 867.61 341.65   A 0.58 0.58 0.0 0 1 866.76 342.40   Q 863.48 339.90 860.19 339.06   Z"></path>
  <path fill="#272525" d="   M 873.46 343.34   A 0.38 0.38 0.0 0 1 873.58 342.68   Q 874.21 342.46 874.74 342.74   Q 879.17 345.06 880.88 349.69   A 2.36 2.35 -31.7 0 1 880.27 352.24   L 879.74 352.73   A 0.99 0.99 0.0 0 1 878.14 352.37   C 877.69 351.19 877.84 349.49 877.17 348.02   Q 875.95 345.34 873.46 343.34   Z"></path>
  <path fill="#272525" d="   M 854.81 353.44   C 851.28 351.66 849.15 348.59 844.32 347.82   A 0.61 0.47 38.0 0 0 844.11 347.82   L 840.49 348.51   A 2.10 2.10 0.0 0 1 838.00 346.36   L 838.00 346.34   A 2.23 2.22 3.2 0 1 840.13 344.44   Q 850.57 344.10 855.45 352.78   A 0.48 0.48 0.0 0 1 854.81 353.44   Z"></path>
  <path fill="#272525" d="   M 876.30 365.21   A 0.19 0.19 0.0 0 1 875.93 365.21   Q 875.00 360.09 871.57 355.94   Q 867.43 350.94 864.95 348.71   A 0.67 0.51 15.7 0 1 864.80 348.51   Q 864.71 348.30 864.75 348.22   A 1.65 1.22 -68.5 0 1 866.43 347.17   Q 871.64 348.94 873.88 353.93   Q 876.39 359.49 876.57 361.84   Q 876.64 362.77 876.30 365.21   Z"></path>
  <path fill="#272525" d="   M 1042.66 349.49   A 0.40 0.40 0.0 0 1 1043.20 349.11   L 1043.74 349.32   A 0.91 0.91 0.0 0 1 1044.33 350.06   C 1044.93 354.57 1045.15 359.78 1041.47 362.50   A 0.97 0.97 0.0 0 1 1040.07 361.20   C 1042.40 357.50 1042.66 354.20 1042.66 349.49   Z"></path>
  <path fill="#272525" d="   M 857.78 364.57   Q 854.48 359.06 848.42 358.09   C 846.89 357.84 846.75 357.33 846.25 356.00   A 0.88 0.88 0.0 0 0 845.47 355.42   L 840.50 355.11   A 0.56 0.41 -20.4 0 1 840.32 355.06   Q 838.57 354.19 838.59 353.29   A 1.82 1.19 11.1 0 1 840.83 352.38   Q 842.96 352.96 850.77 355.81   C 854.94 357.34 859.02 359.37 858.37 364.44   A 0.32 0.32 0.0 0 1 857.78 364.57   Z"></path>
  <path fill="#272525" d="   M 869.19 365.98   A 0.34 0.34 0.0 0 1 868.55 366.16   C 865.98 361.61 864.58 358.69 859.81 355.99   A 1.17 1.17 0.0 0 1 860.27 353.81   Q 861.80 353.64 863.14 354.61   Q 869.03 358.83 869.19 365.98   Z"></path>
  <path fill="#272525" d="   M 831.37 358.49   Q 830.24 358.20 829.40 356.99   A 1.25 1.25 0.0 0 1 829.21 356.05   Q 829.43 354.92 829.50 354.83   A 1.66 1.61 -25.1 0 1 832.40 355.82   Q 832.40 356.59 832.23 357.90   A 0.70 0.69 10.3 0 1 831.37 358.49   Z"></path>
  <path fill="#272525" d="   M 844.47 375.19   A 0.25 0.25 0.0 0 1 844.11 374.90   Q 845.47 370.35 843.18 365.77   C 841.79 362.97 837.60 360.48 835.38 358.44   A 0.41 0.40 -21.9 0 1 835.68 357.74   Q 837.88 357.85 839.82 358.91   Q 848.08 363.42 845.97 372.82   Q 845.58 374.56 844.47 375.19   Z"></path>
  <path fill="#272525" d="   M 822.42 373.01   A 0.61 0.61 0.0 0 1 821.95 371.94   L 824.25 370.04   A 1.94 1.78 87.6 0 0 824.58 369.65   Q 827.45 365.09 828.51 360.41   A 0.75 0.75 0.0 0 1 829.50 359.87   L 830.31 360.18   A 0.91 0.91 0.0 0 1 830.90 361.10   L 830.54 366.93   A 3.28 3.27 79.4 0 1 828.65 369.70   C 827.09 370.41 824.46 372.75 822.42 373.01   Z"></path>
  <path fill="#272525" d="   M 848.36 362.19   A 0.40 0.40 0.0 0 1 848.83 361.60   Q 851.63 362.61 853.61 365.85   A 2.07 2.05 45.0 0 1 853.62 368.00   L 853.55 368.12   A 0.79 0.78 -45.6 0 1 852.23 368.13   L 848.36 362.19   Z"></path>
  <path fill="#272525" d="   M 814.83 367.53   Q 814.74 369.80 815.58 371.60   A 1.28 1.28 0.0 0 0 817.72 371.88   Q 817.99 371.56 818.83 371.18   A 0.83 0.83 0.0 0 1 820.00 371.84   Q 820.25 373.87 818.74 374.47   C 816.37 375.41 812.81 375.13 812.36 371.94   Q 811.94 368.92 813.69 367.05   A 0.66 0.66 0.0 0 1 814.83 367.53   Z"></path>
  <path fill="#272525" d="   M 853.57 380.89   Q 853.32 380.55 853.44 379.49   Q 853.94 375.21 856.54 371.24   A 2.95 2.76 -61.4 0 1 860.05 370.08   C 863.13 371.44 862.23 377.04 862.18 379.88   A 2.24 2.22 -27.8 0 1 861.80 381.09   C 860.65 382.82 860.03 383.68 860.50 385.47   A 0.39 0.38 -32.0 0 0 861.17 385.62   Q 862.34 384.23 864.65 383.73   A 2.06 2.05 85.3 0 0 866.27 381.81   L 866.41 378.61   A 1.07 1.07 0.0 0 1 868.37 378.06   Q 869.92 380.35 869.17 383.67   A 2.21 2.06 -20.7 0 1 868.73 384.56   Q 867.53 386.01 866.67 388.18   Q 863.79 395.44 857.84 399.63   A 1.01 1.01 0.0 0 1 856.38 399.31   L 855.92 398.52   A 1.42 1.41 65.4 0 1 856.68 396.47   Q 859.57 395.46 860.14 392.22   A 0.86 0.86 0.0 0 1 860.85 391.51   Q 863.60 391.05 863.36 388.45   A 1.62 1.38 -21.7 0 0 860.92 387.63   Q 857.76 389.74 853.28 390.11   A 0.64 0.64 0.0 0 1 852.58 389.53   Q 852.44 388.26 853.66 387.66   Q 854.95 387.02 857.28 385.64   A 1.78 1.78 0.0 0 0 858.15 384.22   L 858.67 375.95   A 0.53 0.52 74.6 0 0 857.85 375.48   Q 854.82 377.50 854.16 380.76   A 0.33 0.33 0.0 0 1 853.57 380.89   Z"></path>
  <path fill="#272525" d="   M 870.07 370.15   Q 874.85 374.23 876.08 380.45   C 876.59 383.01 877.08 385.20 875.42 387.13   A 0.68 0.68 0.0 0 1 874.45 387.20   L 872.67 385.62   A 0.90 0.90 0.0 0 1 872.41 384.67   C 874.01 379.78 871.97 375.23 869.35 370.76   A 0.48 0.48 0.0 0 1 870.07 370.15   Z"></path>
  <path fill="#272525" d="   M 877.69 371.89   A 0.04 0.04 0.0 0 1 877.71 371.84   L 877.76 371.82   A 4.12 1.83 71.1 0 1 880.83 375.13   L 880.93 375.43   A 4.12 1.83 71.1 0 1 880.53 379.92   L 880.49 379.94   A 0.04 0.04 0.0 0 1 880.44 379.91   L 877.69 371.89   Z"></path>
  <path fill="#272525" d="   M 1069.76 377.33   Q 1068.86 375.27 1066.59 374.77   A 1.35 1.35 0.0 0 0 1065.63 374.92   Q 1064.58 375.53 1063.85 375.37   A 0.70 0.70 0.0 0 1 1063.50 374.20   C 1066.38 371.21 1069.95 373.84 1070.44 377.13   A 0.36 0.36 0.0 0 1 1069.76 377.33   Z"></path>
  <path fill="#272525" d="   M 847.95 376.39   A 0.41 0.41 0.0 0 1 848.56 376.02   Q 849.19 376.37 849.34 377.00   Q 850.61 382.22 848.09 386.90   A 2.54 2.53 16.9 0 1 845.60 388.22   L 844.82 388.14   A 1.07 1.07 0.0 0 1 843.98 386.59   C 844.61 385.39 846.09 384.30 846.80 382.72   Q 848.10 379.82 847.95 376.39   Z"></path>
  <path fill="#272525" d="   M 1048.19 388.17   L 1048.16 388.16   A 0.36 0.36 0.0 0 1 1047.95 387.58   C 1049.39 385.81 1051.11 382.93 1050.73 380.48   Q 1050.55 379.32 1050.78 377.96   A 1.40 1.40 0.0 0 1 1053.46 377.66   C 1054.72 380.73 1051.59 385.17 1049.21 387.83   A 1.10 1.08 -62.8 0 1 1048.19 388.17   Z"></path>
  <path fill="#272525" d="   M 1061.52 398.54   Q 1061.49 398.28 1061.83 397.51   A 0.79 0.79 0.0 0 0 1061.41 396.45   Q 1056.68 394.50 1057.90 388.71   A 0.39 0.39 0.0 0 1 1058.65 388.69   L 1059.44 391.61   A 1.66 1.65 9.6 0 0 1060.13 392.57   L 1063.90 395.04   A 0.48 0.48 0.0 0 0 1064.58 394.88   Q 1065.30 393.63 1065.25 391.75   Q 1065.16 388.30 1062.10 388.18   A 0.64 0.63 -72.3 0 1 1061.60 387.20   L 1061.89 386.75   A 1.46 1.45 20.3 0 1 1063.30 386.11   C 1068.33 386.78 1068.85 391.71 1066.28 395.29   Q 1065.85 395.88 1062.16 398.82   A 0.40 0.40 0.0 0 1 1061.52 398.54   Z"></path>
  <path fill="#272525" d="   M 881.14 386.63   A 0.39 0.39 0.0 0 1 881.85 386.47   Q 883.34 388.96 882.85 392.62   A 2.01 2.00 84.1 0 1 881.54 394.25   L 881.41 394.29   A 0.76 0.76 0.0 0 1 880.40 393.49   L 881.14 386.63   Z"></path>
  <path fill="#272525" d="   M 865.72 399.72   A 0.61 0.61 0.0 0 1 865.36 398.60   L 870.77 395.10   A 1.06 1.04 81.9 0 0 871.20 394.52   L 872.44 390.04   A 0.97 0.97 0.0 0 1 873.63 389.37   L 874.34 389.57   A 1.46 1.46 0.0 0 1 875.40 391.17   C 874.76 395.85 870.69 399.49 865.72 399.72   Z"></path>
  <path fill="#272525" d="   M 1043.66 396.95   A 0.29 0.29 0.0 0 1 1043.69 396.39   C 1048.01 395.61 1050.71 395.30 1054.16 392.26   A 0.98 0.98 0.0 0 1 1055.77 393.22   Q 1055.48 394.48 1054.34 395.28   Q 1049.37 398.79 1043.66 396.95   Z"></path>
  <path fill="#272525" d="   M 917.53 419.09   Q 922.54 411.66 922.93 402.80   C 922.98 401.75 923.28 401.23 923.89 400.55   A 0.92 0.92 0.0 0 0 924.09 399.70   L 923.26 396.59   A 1.64 1.63 54.3 0 1 923.47 395.27   L 924.58 393.57   A 1.37 1.36 59.9 0 1 927.08 394.24   Q 927.85 407.09 919.78 418.03   Q 919.04 419.04 918.04 419.62   A 0.38 0.38 0.0 0 1 917.53 419.09   Z"></path>
  <path fill="#272525" d="   M 818.20 416.86   A 0.80 0.80 0.0 0 1 817.00 417.57   L 816.74 417.42   A 2.16 2.15 15.4 0 1 815.66 415.54   Q 815.68 411.10 814.27 408.58   A 0.44 0.38 -67.5 0 1 814.21 408.40   L 813.20 402.05   A 2.47 2.46 -25.7 0 1 813.97 399.86   Q 818.02 396.16 823.61 395.77   A 0.42 0.42 0.0 0 1 824.02 396.36   Q 822.35 400.14 822.64 401.46   A 0.71 0.71 0.0 0 1 822.34 402.21   L 818.59 404.63   A 1.45 1.39 80.0 0 0 817.98 405.54   C 817.25 409.36 818.13 413.25 818.20 416.86   Z"></path>
  <path fill="#272525" d="   M 912.91 414.69   A 0.24 0.23 81.6 0 1 912.55 414.42   Q 915.65 406.16 915.87 397.33   A 0.45 0.44 10.8 0 1 916.47 396.93   L 917.17 397.19   A 1.06 1.04 7.5 0 1 917.84 398.05   C 918.44 403.01 917.16 411.46 912.91 414.69   Z"></path>
  <path fill="#272525" d="   M 1052.27 408.96   L 1055.63 407.08   A 0.55 0.55 0.0 0 1 1056.36 407.27   L 1056.43 407.51   A 0.51 0.51 0.0 0 1 1056.29 408.04   L 1048.84 415.02   A 0.79 0.78 78.8 0 1 1047.57 414.17   L 1048.68 411.22   A 0.65 0.65 0.0 0 0 1047.70 410.46   Q 1043.61 413.22 1039.07 413.75   A 0.52 0.52 0.0 0 1 1038.82 412.74   C 1044.02 410.71 1048.79 408.19 1051.27 403.33   A 0.65 0.64 0.4 0 0 1050.41 402.46   Q 1046.78 404.26 1042.12 403.29   A 0.64 0.64 0.0 0 1 1041.66 402.42   L 1041.68 402.37   A 1.03 1.02 -75.9 0 1 1042.75 401.73   Q 1048.39 402.34 1052.78 398.27   C 1053.38 397.71 1054.68 397.32 1055.48 397.38   A 0.85 0.85 0.0 0 1 1056.05 398.79   L 1054.72 400.30   A 1.61 1.59 -26.3 0 0 1054.31 401.49   Q 1054.59 405.21 1051.82 408.41   A 0.36 0.36 0.0 0 0 1052.27 408.96   Z"></path>
  <path fill="#272525" d="   M 877.78 401.64   A 0.23 0.23 0.0 0 1 878.06 401.99   Q 871.19 409.05 861.38 407.11   Q 859.60 406.76 858.81 405.07   A 1.02 1.02 0.0 0 1 859.61 403.62   Q 862.05 403.32 865.95 403.73   C 871.38 404.31 873.74 404.09 877.78 401.64   Z"></path>
  <path fill="#272525" d="   M 853.78 401.97   A 0.41 0.41 0.0 0 1 854.50 402.34   L 852.96 407.02   A 1.51 1.45 78.5 0 1 852.56 407.65   C 848.47 411.39 845.31 413.92 840.21 413.95   A 0.66 0.65 89.6 0 1 839.55 413.29   C 839.58 410.40 844.43 410.48 845.83 409.58   Q 850.47 406.57 853.78 401.97   Z"></path>
  <path fill="#272525" d="   M 974.28 403.34   Q 973.92 405.52 973.38 408.55   C 972.69 412.46 974.11 414.95 975.75 418.49   A 0.73 0.73 0.0 0 1 974.89 419.50   L 974.40 419.37   A 2.24 2.23 -4.4 0 1 972.98 418.16   C 971.02 413.88 970.10 406.58 973.76 403.06   A 0.31 0.31 0.0 0 1 974.28 403.34   Z"></path>
  <path fill="#272525" d="   M 1028.80 413.71   C 1031.78 411.65 1035.91 410.23 1038.42 406.50   A 2.10 2.10 0.0 0 1 1040.56 405.60   L 1040.98 405.68   A 0.88 0.88 0.0 0 1 1041.51 407.09   Q 1036.63 413.24 1028.96 414.13   A 0.23 0.23 0.0 0 1 1028.80 413.71   Z"></path>
  <path fill="#272525" d="   M 883.43 409.19   A 0.21 0.21 0.0 0 1 883.62 409.55   Q 878.41 414.25 871.29 413.88   A 0.80 0.80 0.0 0 1 870.65 412.67   L 870.85 412.33   A 1.91 1.90 -70.7 0 1 872.75 411.42   C 876.79 411.95 880.24 409.99 883.43 409.19   Z"></path>
  <path fill="#272525" d="   M 866.56 413.25   Q 861.37 414.33 855.62 413.24   Q 854.39 413.01 853.87 413.18   Q 852.86 413.52 852.18 413.01   A 1.26 1.16 40.7 0 1 851.97 411.20   C 854.22 408.91 855.09 410.09 857.51 410.85   A 4.94 4.75 55.6 0 0 858.57 411.07   L 866.46 411.72   A 0.78 0.77 41.4 0 1 866.56 413.25   Z"></path>
  <path fill="#272525" d="   M 1056.70 417.65   A 0.50 0.50 0.0 0 1 1055.89 418.12   Q 1053.48 416.15 1054.28 413.36   C 1054.91 411.17 1056.26 410.69 1058.52 410.02   Q 1060.00 409.58 1060.88 410.31   A 1.19 1.14 68.4 0 1 1060.03 412.39   Q 1058.89 412.20 1058.09 412.12   A 1.79 1.78 -1.7 0 0 1056.15 414.18   L 1056.70 417.65   Z"></path>
  <path fill="#272525" d="   M 1040.29 421.41   C 1038.04 423.56 1035.77 426.96 1032.17 425.06   A 0.60 0.60 0.0 0 0 1031.36 425.31   C 1028.93 429.91 1024.33 431.46 1019.33 431.95   A 0.53 0.53 0.0 0 1 1019.02 430.96   Q 1021.56 429.54 1024.97 428.49   Q 1026.63 427.98 1031.66 423.53   A 0.97 0.96 -58.8 0 1 1032.53 423.31   Q 1035.32 423.95 1037.05 421.53   C 1038.26 419.85 1041.88 414.34 1044.83 414.08   A 0.59 0.59 0.0 0 1 1045.28 415.11   Q 1044.16 416.13 1043.46 418.15   A 0.56 0.55 81.5 0 0 1044.31 418.78   Q 1046.96 416.85 1049.86 416.67   A 0.81 0.81 0.0 0 1 1050.27 418.21   C 1046.38 420.10 1042.85 422.21 1042.30 426.66   A 0.79 0.78 14.0 0 1 1041.24 427.29   C 1039.73 426.70 1039.56 425.75 1040.18 424.28   Q 1041.14 421.98 1040.98 421.56   A 0.43 0.42 56.9 0 0 1040.29 421.41   Z"></path>
  <path fill="#272525" d="   M 1060.90 418.79   Q 1060.58 417.22 1059.11 415.80   A 0.74 0.74 0.0 0 1 1059.63 414.52   Q 1061.62 414.53 1062.09 416.97   A 0.41 0.40 56.7 0 1 1062.04 417.23   L 1061.12 418.83   A 0.12 0.12 0.0 0 1 1060.90 418.79   Z"></path>
  <path fill="#272525" d="   M 985.09 426.25   A 0.56 0.56 0.0 0 0 985.65 425.35   Q 984.34 423.82 981.78 422.67   A 1.10 1.10 0.0 0 1 981.43 422.42   L 977.32 418.04   A 2.55 2.54 -60.1 0 1 976.70 415.72   L 976.77 415.42   A 0.73 0.72 -58.5 0 1 978.01 415.12   Q 982.58 420.24 984.28 421.24   Q 985.37 421.88 990.74 424.99   Q 992.22 425.85 993.24 427.10   A 0.87 0.87 0.0 0 1 992.59 428.52   L 982.76 428.77   A 1.56 1.54 60.4 0 1 981.84 428.51   L 978.05 426.03   A 1.17 1.15 -83.7 0 1 977.63 425.50   L 976.41 422.24   A 0.49 0.49 0.0 0 1 977.22 421.73   Q 980.51 425.09 985.09 426.25   Z"></path>
  <path fill="#272525" d="   M 881.80 422.27   C 878.11 425.23 873.42 425.51 868.70 426.22   A 1.07 1.07 0.0 0 0 868.75 428.34   L 873.41 428.86   A 7.98 7.88 42.3 0 0 875.85 428.76   C 877.96 428.35 882.63 426.62 885.96 426.99   A 0.45 0.44 -59.1 0 1 886.16 427.80   Q 876.76 434.22 866.97 429.99   A 2.82 2.76 82.8 0 1 865.87 429.12   Q 864.24 426.94 863.39 426.48   C 860.13 424.71 857.92 423.80 857.16 420.25   A 1.09 1.06 8.5 0 0 856.60 419.51   Q 855.21 418.79 855.04 417.51   A 1.86 1.81 -81.2 0 1 857.61 415.57   C 863.88 418.60 871.18 417.60 878.19 416.50   A 0.43 0.43 0.0 0 1 878.46 417.30   Q 876.19 418.55 873.75 419.18   C 868.92 420.44 865.65 421.10 861.11 419.32   A 0.71 0.70 84.5 0 0 860.26 420.36   C 863.64 425.62 876.69 422.85 881.56 421.76   A 0.29 0.29 0.0 0 1 881.80 422.27   Z"></path>
  <path fill="#272525" d="   M 1034.02 416.28   L 1034.07 416.30   A 0.88 0.88 0.0 0 1 1034.39 417.75   C 1031.20 420.85 1025.67 422.79 1021.25 421.31   A 0.52 0.51 52.1 0 1 1021.37 420.31   Q 1027.60 419.90 1031.71 416.66   A 2.42 2.41 -54.3 0 1 1034.02 416.28   Z"></path>
  <path fill="#272525" d="   M 1008.39 421.35   C 1004.44 424.73 989.66 425.00 989.63 417.63   A 0.49 0.49 0.0 0 1 990.23 417.15   Q 990.34 417.17 992.54 418.66   C 996.99 421.67 1002.88 422.16 1008.12 420.83   A 0.30 0.30 0.0 0 1 1008.39 421.35   Z"></path>
  <ellipse fill="#272525" cx="0.00" cy="0.00" transform="translate(886.94,419.07) rotate(-35.8)" rx="2.31" ry="1.39"></ellipse>
  <path fill="#272525" d="   M 1056.64 423.69   Q 1055.00 423.07 1052.90 423.69   A 0.90 0.90 0.0 0 1 1051.74 422.83   L 1051.74 422.46   A 1.18 1.17 -6.9 0 1 1052.64 421.32   Q 1056.08 420.45 1057.19 423.13   A 0.43 0.43 0.0 0 1 1056.64 423.69   Z"></path>
  <path fill="#272525" d="   M 922.31 430.54   A 0.54 0.54 0.0 0 1 921.58 429.80   L 923.70 425.80   A 0.83 0.82 37.9 0 0 923.58 424.86   Q 923.08 424.29 923.90 422.36   A 1.30 1.28 12.9 0 1 925.16 421.58   L 926.89 421.69   A 0.55 0.55 0.0 0 1 927.19 422.67   Q 924.58 424.69 925.91 425.60   A 0.77 0.77 0.0 0 1 926.15 426.60   Q 924.68 429.30 922.31 430.54   Z"></path>
  <path fill="#272525" d="   M 1050.73 436.47   A 0.74 0.74 0.0 0 1 1050.52 437.92   C 1042.98 437.91 1043.59 428.51 1046.99 424.48   A 2.35 2.35 0.0 0 1 1049.61 423.79   L 1049.93 423.91   A 1.08 1.07 -57.8 0 1 1050.32 425.66   C 1047.47 428.63 1045.40 434.91 1050.73 436.47   Z"></path>
  <path fill="#272525" d="   M 1022.73 425.39   A 0.15 0.15 0.0 0 1 1022.91 425.52   L 1022.92 425.60   A 3.52 1.39 -9.3 0 1 1019.67 427.54   L 1018.19 427.78   A 3.52 1.39 -9.3 0 1 1014.49 426.98   L 1014.48 426.90   A 0.15 0.15 0.0 0 1 1014.60 426.73   L 1022.73 425.39   Z"></path>
  <ellipse fill="#272525" cx="0.00" cy="0.00" transform="translate(892.15,427.74) rotate(-17.0)" rx="2.21" ry="1.06"></ellipse>
  <path fill="#272525" d="   M 1011.74 427.92   A 0.31 0.30 -66.7 0 1 1011.96 428.48   C 1007.49 431.14 1001.44 431.39 996.99 428.35   A 0.85 0.81 -42.0 0 1 997.10 426.95   Q 998.06 426.39 999.38 426.91   Q 1005.63 429.37 1011.74 427.92   Z"></path>
  <path fill="#272525" d="   M 1053.29 429.48   A 0.67 0.67 0.0 0 1 1053.64 428.44   C 1058.58 426.97 1059.85 433.10 1056.25 435.59   A 0.64 0.64 0.0 0 1 1055.38 434.67   C 1056.53 433.18 1056.88 430.92 1054.82 430.24   Q 1053.53 429.81 1053.29 429.48   Z"></path>
  <path fill="#272525" d="   M 983.57 431.86   A 0.88 0.88 0.0 0 1 984.33 430.39   Q 989.88 431.05 992.47 430.24   A 1.33 1.18 37.1 0 1 992.97 430.20   L 997.56 430.85   A 0.85 0.85 0.0 0 1 997.65 432.51   Q 995.55 433.06 992.67 432.13   A 0.84 0.71 5.7 0 0 991.56 432.89   Q 991.68 433.43 991.34 433.78   A 0.90 0.89 20.7 0 1 990.76 434.04   C 989.34 434.14 988.38 433.23 986.83 433.36   Q 985.07 433.52 983.57 431.86   Z"></path>
  <path fill="#272525" d="   M 1017.70 436.88   A 0.52 0.52 0.0 0 1 1017.43 435.90   C 1020.38 434.54 1025.91 433.88 1030.10 430.54   A 0.69 0.69 0.0 0 1 1031.19 430.90   L 1031.32 431.40   A 1.54 1.53 -30.7 0 1 1030.94 432.87   C 1027.94 435.93 1022.71 436.35 1017.70 436.88   Z"></path>
  <path fill="#272525" d="   M 896.81 431.68   A 0.26 0.26 0.0 0 1 897.09 432.09   Q 893.05 437.01 886.85 435.31   A 1.20 1.20 0.0 0 0 885.98 435.39   Q 879.06 438.82 871.92 437.34   A 3.21 3.19 79.2 0 1 869.88 435.94   L 868.94 434.50   A 0.54 0.54 0.0 0 1 869.53 433.69   Q 874.22 434.92 876.54 434.63   Q 884.74 433.62 884.98 433.60   A 4.30 4.23 -40.3 0 1 886.34 433.70   C 890.63 434.77 892.91 432.97 896.81 431.68   Z"></path>
  <path fill="#272525" d="   M 1013.98 434.14   L 1014.01 434.17   A 0.76 0.76 0.0 0 1 1013.85 435.45   C 1010.32 437.06 1005.21 437.02 1002.02 434.51   A 0.45 0.45 0.0 0 1 1002.41 433.72   Q 1007.65 435.22 1011.97 433.77   A 2.11 2.11 0.0 0 1 1013.98 434.14   Z"></path>
  <path fill="#272525" d="   M 882.58 441.95   A 0.34 0.33 56.4 0 0 882.46 442.56   Q 888.07 446.32 892.96 443.12   A 1.77 1.72 -59.2 0 1 894.00 442.84   Q 898.69 443.09 899.75 442.52   Q 902.15 441.20 904.97 439.23   A 0.30 0.29 74.2 0 1 905.43 439.49   L 905.39 440.03   A 1.54 1.53 77.1 0 1 904.61 441.28   L 899.04 444.44   A 1.25 1.23 23.6 0 1 898.70 444.57   C 896.75 444.94 893.75 444.52 892.07 445.88   C 889.76 447.76 884.76 446.60 882.43 445.59   Q 880.79 444.88 880.42 443.97   C 879.52 441.78 877.93 441.37 876.20 441.19   A 1.54 1.51 -24.3 0 1 875.49 440.93   L 874.72 440.43   A 0.27 0.26 63.5 0 1 874.88 439.94   Q 882.43 440.48 889.25 437.86   A 1.29 1.25 -41.8 0 1 890.24 437.90   C 894.17 439.76 899.05 437.55 902.25 434.84   A 0.31 0.31 0.0 0 1 902.75 435.18   C 901.07 439.99 894.56 441.21 890.31 439.97   A 0.88 0.87 -57.8 0 0 889.49 440.16   C 887.26 442.18 885.38 441.47 882.58 441.95   Z"></path>
  <path fill="#272525" d="   M 988.91 437.05   A 0.41 0.41 0.0 0 1 988.68 436.28   Q 992.29 434.22 997.69 435.13   A 0.74 0.72 72.4 0 1 998.10 435.35   L 1001.39 438.86   A 0.68 0.68 0.0 0 1 1000.58 439.93   Q 994.38 436.73 988.91 437.05   Z"></path>
  <path fill="#272525" d="   M 925.76 435.85   Q 924.46 439.96 921.66 441.23   Q 916.38 443.63 913.95 445.54   A 0.31 0.31 0.0 0 1 913.49 445.44   Q 913.09 444.70 913.41 444.39   Q 914.61 443.20 916.52 441.23   A 4.36 4.28 12.9 0 1 918.36 440.10   Q 921.36 439.16 925.40 435.61   A 0.23 0.22 78.3 0 1 925.76 435.85   Z"></path>
  <path fill="#272525" d="   M 1021.39 450.49   A 0.34 0.34 0.0 0 0 1021.33 451.06   Q 1024.04 453.15 1027.67 453.53   C 1028.95 453.67 1030.66 453.17 1031.89 453.67   A 0.62 0.61 23.0 0 1 1032.23 454.49   C 1029.44 460.81 1025.20 467.28 1022.70 474.72   A 2.73 2.71 -7.5 0 1 1021.60 476.14   L 1020.78 476.67   A 0.66 0.66 0.0 0 1 1019.79 475.94   L 1023.51 462.53   A 1.41 1.38 -61.7 0 0 1023.10 461.12   L 1021.76 459.94   A 0.59 0.59 0.0 0 1 1022.35 458.94   Q 1023.59 459.39 1024.71 459.45   Q 1026.70 459.55 1026.72 457.76   A 2.38 1.86 -0.1 0 0 1024.32 455.89   Q 1022.61 455.90 1021.32 455.77   A 0.81 0.81 0.0 0 1 1020.60 455.14   Q 1020.05 452.69 1018.11 450.46   A 0.71 0.71 0.0 0 1 1018.11 449.52   L 1019.16 448.34   A 0.36 0.35 -69.6 0 0 1018.89 447.75   Q 1014.94 447.79 1012.68 446.45   A 0.62 0.62 0.0 0 1 1012.99 445.29   C 1015.77 445.26 1020.90 445.07 1023.68 443.25   A 0.28 0.27 34.0 0 0 1023.58 442.75   Q 1018.62 441.79 1013.81 441.88   Q 1011.11 441.93 1008.94 440.33   A 0.56 0.56 0.0 0 1 1009.33 439.32   C 1016.69 440.08 1023.26 440.14 1029.90 436.74   A 1.21 1.21 0.0 0 1 1031.33 438.66   Q 1028.42 441.73 1027.20 441.80   A 0.65 0.65 0.0 0 0 1027.00 443.06   Q 1027.37 443.20 1030.19 442.73   A 0.71 0.71 0.0 0 1 1031.00 443.62   L 1030.91 443.95   A 1.42 1.40 3.1 0 1 1029.76 444.97   L 1025.41 445.66   A 0.59 0.59 0.0 0 0 1025.22 446.76   Q 1027.70 448.12 1030.20 447.34   A 1.41 1.40 64.9 0 1 1031.80 447.92   L 1033.09 449.91   A 0.54 0.54 0.0 0 1 1032.64 450.74   Q 1029.48 450.78 1025.50 450.03   Q 1023.21 449.59 1021.39 450.49   Z"></path>
  <path fill="#272525" d="   M 1004.55 444.09   L 1008.12 446.43   A 2.11 2.09 -74.3 0 1 1009.06 448.13   L 1009.08 448.76   A 0.35 0.35 0.0 0 1 1008.56 449.08   L 999.58 444.44   A 0.11 0.11 0.0 0 1 999.55 444.27   Q 999.61 444.21 999.54 443.89   A 0.78 0.77 -1.0 0 0 998.91 443.29   C 995.96 442.77 993.21 442.40 991.99 439.74   A 0.44 0.44 0.0 0 1 992.54 439.14   Q 1000.08 441.79 1007.67 442.06   A 0.76 0.76 0.0 0 1 1008.40 442.82   L 1008.40 442.84   A 0.81 0.80 -89.6 0 1 1007.60 443.64   L 1004.68 443.66   A 0.24 0.23 -28.6 0 0 1004.55 444.09   Z"></path>
  <path fill="#272525" d="   M 927.77 496.68   Q 927.89 497.12 928.72 498.11   A 1.76 1.71 -69.8 0 1 929.11 498.99   C 929.80 504.59 925.66 508.97 921.24 512.17   A 0.88 0.87 70.3 0 1 919.85 511.51   C 919.50 504.73 920.68 497.74 925.84 492.96   A 1.22 1.22 0.0 0 0 926.24 491.99   Q 925.22 472.62 922.14 454.84   A 8.69 8.32 29.7 0 0 921.56 452.88   C 919.92 449.04 917.39 445.51 921.46 443.23   Q 921.83 443.03 923.35 441.88   A 0.55 0.55 0.0 0 1 924.23 442.41   Q 923.93 444.09 922.91 445.58   A 1.50 1.49 57.5 0 0 922.66 446.73   Q 923.24 449.84 923.41 450.11   C 926.10 454.55 925.51 458.55 925.40 463.67   C 925.32 467.43 926.68 472.09 926.91 475.06   C 927.45 481.92 927.80 487.15 931.06 492.12   A 1.48 1.47 -33.2 0 1 930.63 494.17   L 928.10 495.81   A 0.80 0.78 66.2 0 0 927.77 496.68   Z"></path>
  <path fill="#272525" d="   M 909.76 445.02   A 0.28 0.28 0.0 0 1 910.14 445.37   L 909.70 446.54   A 2.32 2.32 0.0 0 1 908.31 447.90   Q 905.15 449.01 904.27 449.68   A 0.49 0.49 0.0 0 0 904.48 450.55   Q 910.71 451.62 915.43 446.72   A 0.68 0.68 0.0 0 1 916.56 447.44   C 914.12 453.70 908.01 451.66 903.63 455.04   A 1.88 1.87 24.0 0 1 902.61 455.43   Q 899.36 455.69 896.96 454.30   A 1.23 1.22 49.8 0 0 895.92 454.21   Q 895.47 454.38 894.66 455.36   A 0.68 0.67 33.5 0 1 893.82 455.53   C 889.54 453.27 887.42 452.12 884.65 449.81   A 0.78 0.78 0.0 0 1 885.29 448.45   Q 887.40 448.84 890.10 450.45   A 2.19 2.15 58.5 0 0 891.35 450.76   L 895.54 450.53   A 0.66 0.66 0.0 0 1 896.20 450.96   Q 897.01 453.06 900.81 451.95   A 1.65 1.51 -27.3 0 0 901.72 449.46   Q 901.67 449.39 900.86 449.15   Q 900.16 448.94 896.38 448.60   A 0.54 0.54 0.0 0 1 895.93 447.88   L 896.05 447.56   A 0.44 0.42 11.9 0 1 896.48 447.29   Q 903.54 447.76 909.76 445.02   Z"></path>
  <path fill="#272525" d="   M 997.37 446.70   A 0.57 0.57 0.0 0 1 998.21 446.03   L 1004.43 449.97   A 0.23 0.22 -19.7 0 0 1004.52 450.01   L 1012.30 452.94   A 0.44 0.44 0.0 0 0 1012.84 452.31   L 1011.17 449.43   A 0.65 0.64 5.4 0 1 1012.15 448.62   C 1014.32 450.48 1017.58 454.56 1018.59 457.56   C 1019.86 461.37 1019.71 465.35 1018.24 469.65   Q 1015.33 478.12 1010.21 495.12   A 1.30 1.28 83.9 0 1 1009.63 495.85   L 1008.65 496.42   A 0.43 0.43 0.0 0 0 1008.63 497.16   L 1009.58 497.79   A 0.90 0.89 -50.0 0 1 1009.70 499.19   L 1007.63 501.12   A 0.39 0.38 -31.2 0 1 1007.00 500.97   C 1006.08 498.35 1007.27 497.25 1008.56 494.97   A 5.55 5.52 -22.4 0 0 1009.11 493.66   L 1017.60 463.07   A 3.45 3.34 -46.2 0 0 1017.59 461.21   Q 1017.27 460.13 1016.63 459.76   A 0.61 0.60 27.7 0 0 1015.78 460.02   Q 1011.69 468.48 1009.25 477.76   Q 1005.92 490.45 1005.91 490.47   A 1.40 1.37 -7.9 0 1 1005.30 491.26   C 999.59 494.68 1001.57 503.88 995.40 505.95   Q 994.43 506.27 990.59 507.21   A 1.06 1.06 0.0 0 1 989.29 506.01   C 990.05 501.34 992.68 496.36 997.50 495.00   C 1001.33 493.90 1002.65 490.01 1004.13 487.37   Q 1005.02 485.78 1005.82 483.29   Q 1009.02 473.28 1010.18 468.05   A 2.48 2.47 -79.1 0 0 1008.17 465.07   Q 1005.52 464.64 1003.50 462.30   A 0.86 0.86 0.0 0 0 1001.98 462.86   L 1001.98 464.47   A 2.70 2.68 16.9 0 0 1003.19 466.71   L 1006.53 468.90   A 0.62 0.62 0.0 0 1 1006.14 470.03   Q 1003.98 469.83 1001.88 468.42   A 0.32 0.32 0.0 0 0 1001.38 468.63   Q 999.80 478.67 998.94 483.18   Q 997.70 489.70 993.64 494.47   A 0.43 0.43 0.0 0 1 992.90 494.30   L 992.45 492.62   A 1.06 1.05 59.3 0 1 992.70 491.61   Q 995.65 488.55 997.12 481.18   Q 999.04 471.58 1000.24 461.50   C 1000.72 457.39 1000.54 453.94 998.73 450.44   Q 998.56 450.09 997.37 446.70   Z   M 1001.89 451.55   Q 1002.03 453.77 1004.39 454.95   Q 1008.26 456.87 1010.91 457.88   A 0.69 0.68 -4.6 0 0 1011.75 456.90   L 1010.95 455.51   A 2.21 2.20 79.2 0 0 1009.38 454.44   Q 1005.09 453.80 1002.39 451.31   A 0.30 0.30 0.0 0 0 1001.89 451.55   Z   M 1002.82 457.25   A 0.36 0.35 9.9 0 0 1002.30 457.61   C 1002.57 459.33 1003.59 460.66 1005.44 461.05   Q 1008.49 461.68 1009.94 463.39   A 0.47 0.47 0.0 0 0 1010.76 463.17   Q 1011.19 460.79 1008.60 459.82   Q 1005.14 458.51 1002.82 457.25   Z"></path>
  <path fill="#272525" d="   M 917.13 450.40   A 0.14 0.14 0.0 0 1 917.38 450.49   Q 917.43 451.89 917.92 453.00   A 0.49 0.48 -24.2 0 1 917.67 453.64   L 912.80 455.73   A 1.66 1.64 -52.5 0 1 911.93 455.85   C 910.52 455.63 908.28 456.80 906.88 456.33   A 0.45 0.45 0.0 0 1 906.91 455.47   C 911.91 454.13 913.97 453.78 917.13 450.40   Z"></path>
  <path fill="#272525" d="   M 918.36 456.16   Q 920.27 460.24 920.41 461.79   C 920.67 464.47 921.86 467.78 921.51 470.84   A 0.38 0.38 0.0 0 1 920.76 470.90   L 918.31 461.78   A 0.43 0.42 -75.5 0 0 918.20 461.59   L 915.95 459.19   A 1.19 1.17 69.8 0 0 915.17 458.82   L 909.88 458.49   A 0.25 0.24 -4.5 0 1 909.65 458.30   L 909.57 458.03   A 0.41 0.40 81.3 0 1 909.94 457.52   C 911.84 457.44 915.67 457.23 917.60 455.95   A 0.52 0.52 0.0 0 1 918.36 456.16   Z"></path>
  <path fill="#272525" d="   M 896.11 457.18   C 898.60 457.42 902.33 457.26 904.50 458.52   A 0.40 0.40 0.0 0 1 904.31 459.26   L 900.47 459.36   A 0.49 0.49 0.0 0 0 900.21 460.26   L 900.96 460.75   A 2.58 2.56 59.3 0 0 902.58 461.17   Q 905.10 460.99 907.16 462.23   A 0.69 0.69 0.0 0 1 906.59 463.47   Q 905.11 462.99 902.39 463.10   A 0.75 0.75 0.0 0 0 901.80 464.26   L 902.08 464.69   A 2.01 1.99 -15.0 0 0 903.69 465.61   C 906.66 465.70 909.36 465.50 910.66 467.87   A 0.45 0.45 0.0 0 1 910.13 468.51   Q 906.74 467.42 903.79 467.77   A 0.64 0.64 0.0 0 0 903.24 468.50   C 904.63 477.51 906.42 485.93 904.34 493.98   A 1.87 1.86 -48.2 0 0 904.40 495.08   Q 904.95 496.55 903.53 498.91   A 0.45 0.45 0.0 0 1 902.77 498.92   L 901.93 497.62   A 1.24 1.22 -53.3 0 1 901.79 496.61   C 905.10 485.46 902.67 474.29 899.14 462.98   C 898.48 460.87 896.42 459.97 895.60 457.85   A 0.50 0.49 82.5 0 1 896.11 457.18   Z"></path>
  <path fill="#272525" d="   M 918.18 494.26   C 917.41 483.85 915.81 472.79 912.31 462.98   A 2.21 2.20 -34.1 0 1 912.74 460.77   L 913.19 460.26   A 0.76 0.76 0.0 0 1 914.51 460.62   C 915.24 464.43 917.95 472.35 918.09 478.39   C 918.22 484.00 918.72 486.62 919.65 493.41   A 0.35 0.35 0.0 0 1 919.56 493.69   L 918.86 494.49   A 0.39 0.39 0.0 0 1 918.18 494.26   Z"></path>
  <path fill="#272525" d="   M 1005.45 472.58   Q 1006.09 473.30 1005.46 475.09   A 0.56 0.56 0.0 0 1 1004.75 475.43   Q 1004.08 475.20 1003.39 474.42   Q 1002.69 473.64 1002.54 472.94   A 0.56 0.56 0.0 0 1 1002.97 472.28   Q 1004.81 471.86 1005.45 472.58   Z"></path>
  <path fill="#272525" d="   M 912.65 479.41   A 0.31 0.31 0.0 0 1 913.24 479.54   L 913.83 492.28   A 0.24 0.21 64.8 0 1 913.78 492.45   Q 911.36 495.48 912.00 499.43   Q 913.41 508.13 905.40 511.65   A 1.01 1.01 0.0 0 1 903.99 510.73   L 903.99 502.74   A 2.33 2.32 78.2 0 1 905.38 500.61   C 913.88 496.86 910.03 484.55 912.65 479.41   Z"></path>
  <path fill="#272525" d="   M 920.48 495.38   A 0.30 0.30 0.0 0 1 920.74 495.71   L 920.72 495.86   A 3.61 1.25 -83.1 0 1 919.05 499.29   L 918.89 499.28   A 3.61 1.25 -83.1 0 1 918.08 495.54   L 918.10 495.39   A 0.30 0.30 0.0 0 1 918.43 495.13   L 920.48 495.38   Z"></path>
  <path fill="#272525" d="   M 986.84 505.70   A 0.13 0.13 0.0 0 1 986.67 505.76   L 986.61 505.73   A 5.77 2.09 -64.4 0 1 987.22 499.62   L 987.34 499.37   A 5.77 2.09 -64.4 0 1 991.72 495.07   L 991.77 495.10   A 0.13 0.13 0.0 0 1 991.84 495.27   L 986.84 505.70   Z"></path>
  <path fill="#272525" d="   M 917.62 512.27   A 0.11 0.11 0.0 0 1 917.51 512.38   L 917.48 512.37   A 5.99 2.38 -85.8 0 1 915.54 506.23   L 915.63 505.07   A 5.99 2.38 -85.8 0 1 918.44 499.27   L 918.47 499.27   A 0.11 0.11 0.0 0 1 918.57 499.39   L 917.62 512.27   Z"></path>
  <path fill="#272525" d="   M 901.56 511.02   A 0.65 0.65 0.0 0 1 900.28 511.17   Q 898.89 506.06 900.71 500.16   A 0.50 0.50 0.0 0 1 901.32 499.82   L 901.78 499.95   A 0.64 0.64 0.0 0 1 902.23 500.72   C 901.35 504.40 901.69 507.02 901.56 511.02   Z"></path>
  <path fill="#272525" d="   M 999.90 512.41   Q 999.03 511.90 999.24 510.74   Q 1000.28 504.99 1004.12 500.95   A 1.27 1.27 0.0 0 1 1006.14 502.45   L 1000.48 512.26   A 0.43 0.42 29.9 0 1 999.90 512.41   Z"></path>
  <path fill="#272525" d="   M 42.25 913.04   Q 62.59 896.48 81.56 874.41   Q 101.95 850.68 118.71 829.82   C 163.35 774.27 196.34 732.65 236.86 686.22   C 258.65 661.23 282.03 637.48 307.77 617.25   A 0.48 0.48 0.0 0 0 307.82 616.54   C 288.24 596.69 261.92 585.93 234.14 582.01   Q 176.54 573.89 124.13 595.32   C 87.67 610.22 52.65 637.82 39.53 676.10   C 31.30 700.12 35.83 726.14 57.23 741.15   C 72.56 751.90 94.47 753.33 112.84 749.34   Q 130.59 745.48 147.19 736.47   C 182.73 717.18 211.37 686.17 229.02 650.09   A 1.69 1.69 0.0 0 1 231.22 649.28   L 231.30 649.31   A 1.53 1.53 0.0 0 1 232.08 651.35   Q 224.10 668.86 209.72 687.29   C 185.55 718.27 150.21 745.65 111.45 753.05   C 79.65 759.12 44.54 749.13 34.57 715.07   C 29.55 697.92 33.24 679.34 41.15 663.24   C 58.55 627.85 92.65 603.20 128.76 589.83   Q 176.46 572.16 227.42 577.75   C 258.19 581.12 289.37 592.13 312.74 612.67   A 0.61 0.60 46.2 0 0 313.51 612.69   Q 350.96 583.29 395.26 565.88   C 439.34 548.55 490.18 540.60 537.37 549.81   C 562.85 554.77 587.72 566.72 602.31 588.90   C 629.40 630.07 606.89 678.39 570.43 704.04   Q 561.67 710.20 551.44 716.11   Q 514.56 737.42 471.87 741.98   C 444.06 744.95 415.49 744.72 387.97 739.12   Q 383.10 738.13 378.24 736.20   A 1.74 1.73 -69.7 0 1 377.24 734.03   L 377.28 733.89   A 1.53 1.52 20.6 0 1 379.32 732.97   C 386.26 735.90 394.75 737.26 403.38 738.32   Q 445.27 743.45 485.47 736.59   C 516.75 731.24 546.85 717.67 572.22 698.36   C 600.12 677.12 620.66 638.91 606.30 603.84   Q 596.19 579.13 572.60 566.03   C 551.76 554.46 526.86 549.82 502.89 549.38   C 435.35 548.11 369.08 573.42 316.69 615.65   A 0.38 0.38 0.0 0 0 316.67 616.22   Q 334.70 633.82 341.17 654.00   C 356.91 703.08 324.25 746.94 278.74 762.14   A 0.37 0.37 0.0 0 0 278.57 762.73   Q 300.36 789.77 296.08 824.77   Q 293.66 844.67 282.53 863.63   Q 274.44 877.41 265.03 887.11   C 250.59 901.97 230.42 912.46 209.66 915.23   C 187.32 918.22 165.42 907.92 164.01 883.16   C 162.29 853.20 188.19 824.11 210.54 807.66   Q 225.27 796.81 243.53 790.47   A 1.40 1.39 80.4 0 1 245.38 791.79   L 245.38 792.52   A 1.22 1.22 0.0 0 1 244.57 793.67   Q 217.93 803.02 197.84 822.87   C 187.45 833.14 178.55 844.07 172.68 857.02   C 166.68 870.22 163.44 888.93 174.99 900.52   C 186.98 912.56 203.55 908.17 216.65 899.96   C 236.38 887.59 251.58 867.58 263.18 846.56   C 273.51 827.86 280.45 807.57 279.07 785.90   Q 278.36 774.74 272.97 764.73   A 1.14 1.13 68.8 0 0 271.69 764.16   C 259.31 767.33 238.78 768.21 228.61 759.29   Q 223.75 755.03 225.66 749.65   C 227.38 744.83 233.11 742.68 237.94 742.42   Q 256.63 741.45 270.47 754.42   A 1.30 1.30 0.0 0 0 271.99 754.61   C 293.18 742.88 309.39 722.03 318.92 699.55   C 330.06 673.25 328.91 642.96 311.18 620.49   A 0.30 0.30 0.0 0 0 310.75 620.45   Q 278.82 646.59 253.49 677.72   C 234.80 700.68 218.06 724.34 202.50 750.12   Q 189.82 771.15 165.13 814.26   Q 147.02 845.87 126.16 875.50   Q 112.49 894.92 96.40 912.67   A 1.95 1.91 -68.5 0 1 94.97 913.31   L 42.34 913.31   A 0.15 0.15 0.0 0 1 42.25 913.04   Z   M 266.51 756.91   Q 254.07 743.96 236.13 746.00   C 229.89 746.71 224.63 753.24 232.33 757.57   C 242.44 763.27 255.81 762.27 266.43 757.38   A 0.30 0.29 55.4 0 0 266.51 756.91   Z"></path>
  <path fill="#272525" d="   M 862.36 913.04   Q 882.70 896.48 901.67 874.41   Q 922.06 850.68 938.82 829.82   C 983.46 774.27 1016.45 732.65 1056.96 686.22   C 1078.75 661.23 1102.13 637.48 1127.87 617.25   A 0.48 0.48 0.0 0 0 1127.92 616.54   C 1108.34 596.69 1082.02 585.93 1054.24 582.01   Q 996.64 573.89 944.23 595.32   C 907.77 610.22 872.76 637.82 859.64 676.10   C 851.41 700.12 855.94 726.14 877.34 741.15   C 892.67 751.90 914.58 753.33 932.95 749.34   Q 950.70 745.48 967.30 736.47   C 1002.84 717.18 1031.47 686.17 1049.12 650.09   A 1.69 1.69 0.0 0 1 1051.32 649.28   L 1051.40 649.31   A 1.53 1.53 0.0 0 1 1052.18 651.35   Q 1044.20 668.86 1029.82 687.29   C 1005.66 718.27 970.32 745.65 931.56 753.05   C 899.76 759.12 864.65 749.13 854.68 715.07   C 849.66 697.92 853.35 679.34 861.26 663.24   C 878.65 627.85 912.75 603.20 948.86 589.83   Q 996.56 572.16 1047.52 577.75   C 1078.29 581.12 1109.47 592.13 1132.84 612.67   A 0.61 0.60 46.2 0 0 1133.61 612.69   Q 1171.06 583.29 1215.36 565.88   C 1259.44 548.55 1310.28 540.60 1357.47 549.81   C 1382.95 554.77 1407.82 566.72 1422.41 588.90   C 1449.50 630.07 1426.99 678.39 1390.53 704.04   Q 1381.77 710.20 1371.54 716.11   Q 1334.66 737.42 1291.97 741.98   C 1264.16 744.95 1235.59 744.72 1208.07 739.12   Q 1203.20 738.13 1198.34 736.20   A 1.74 1.73 -69.7 0 1 1197.34 734.03   L 1197.38 733.89   A 1.53 1.52 20.6 0 1 1199.42 732.97   C 1206.36 735.90 1214.85 737.26 1223.48 738.32   Q 1265.37 743.45 1305.57 736.59   C 1336.85 731.24 1366.95 717.67 1392.32 698.36   C 1420.22 677.12 1440.76 638.91 1426.40 603.84   Q 1416.29 579.13 1392.70 566.03   C 1371.86 554.46 1346.96 549.82 1322.99 549.38   C 1255.45 548.11 1189.18 573.42 1136.79 615.65   A 0.38 0.38 0.0 0 0 1136.77 616.22   Q 1154.80 633.82 1161.27 654.00   C 1177.01 703.08 1144.35 746.94 1098.84 762.14   A 0.37 0.37 0.0 0 0 1098.67 762.73   Q 1120.46 789.77 1116.19 824.77   Q 1113.77 844.67 1102.64 863.63   Q 1094.55 877.41 1085.14 887.11   C 1070.70 901.97 1050.53 912.46 1029.77 915.23   C 1007.43 918.22 985.53 907.92 984.12 883.16   C 982.40 853.20 1008.30 824.11 1030.65 807.66   Q 1045.38 796.81 1063.64 790.47   A 1.40 1.39 80.4 0 1 1065.49 791.79   L 1065.49 792.52   A 1.22 1.22 0.0 0 1 1064.68 793.67   Q 1038.04 803.02 1017.95 822.87   C 1007.56 833.14 998.66 844.07 992.79 857.02   C 986.79 870.22 983.55 888.93 995.10 900.52   C 1007.09 912.56 1023.66 908.17 1036.76 899.96   C 1056.49 887.59 1071.69 867.58 1083.29 846.56   C 1093.62 827.86 1100.56 807.57 1099.18 785.90   Q 1098.46 774.74 1093.07 764.73   A 1.14 1.13 68.8 0 0 1091.79 764.16   C 1079.42 767.33 1058.89 768.21 1048.72 759.29   Q 1043.86 755.03 1045.77 749.65   C 1047.48 744.83 1053.21 742.68 1058.04 742.42   Q 1076.73 741.45 1090.57 754.42   A 1.30 1.30 0.0 0 0 1092.09 754.61   C 1113.28 742.88 1129.49 722.03 1139.02 699.55   C 1150.16 673.25 1149.01 642.96 1131.28 620.49   A 0.30 0.30 0.0 0 0 1130.85 620.45   Q 1098.92 646.59 1073.59 677.72   C 1054.90 700.68 1038.16 724.34 1022.61 750.12   Q 1009.93 771.15 985.24 814.26   Q 967.13 845.87 946.27 875.50   Q 932.60 894.92 916.51 912.67   A 1.95 1.91 -68.5 0 1 915.08 913.31   L 862.45 913.31   A 0.15 0.15 0.0 0 1 862.36 913.04   Z   M 1086.59 756.89   Q 1074.15 743.95 1056.22 746.00   C 1049.99 746.71 1044.73 753.24 1052.43 757.57   C 1062.54 763.26 1075.90 762.25 1086.51 757.36   A 0.30 0.29 55.4 0 0 1086.59 756.89   Z"></path>
  <path fill="#272525" d="   M 691.49 817.27   C 701.77 807.01 712.96 798.12 726.10 792.65   Q 731.71 790.32 737.63 790.17   C 752.54 789.79 762.98 801.19 759.16 816.17   C 753.70 837.57 727.64 851.68 707.96 856.66   A 0.52 0.52 0.0 0 0 707.61 857.37   C 712.10 867.89 709.67 877.72 704.64 887.72   C 702.02 892.95 692.87 910.13 704.56 910.54   C 706.82 910.62 709.56 909.78 711.67 908.70   Q 725.13 901.82 737.75 891.24   Q 738.26 890.81 738.10 889.91   Q 737.96 889.16 738.05 888.49   Q 739.71 875.48 750.90 866.63   Q 758.45 860.65 767.25 862.10   A 1.16 1.15 28.4 0 0 768.21 861.82   Q 770.81 859.47 778.42 850.67   C 798.98 826.91 816.70 806.15 833.21 782.23   A 1.73 1.73 0.0 0 1 835.81 781.94   L 835.94 782.06   A 1.99 1.98 43.1 0 1 836.04 784.87   C 831.46 789.78 830.32 798.65 830.71 805.25   C 831.31 815.32 832.59 826.99 833.01 838.61   C 833.78 860.01 826.10 880.64 812.61 897.13   A 0.32 0.32 0.0 0 0 813.01 897.61   C 829.68 888.44 844.73 875.08 856.39 860.55   A 1.65 1.65 0.0 0 1 858.71 860.29   L 858.79 860.36   A 1.63 1.62 -51.4 0 1 859.04 862.64   Q 849.18 875.06 835.57 886.31   C 820.48 898.78 806.62 908.45 788.44 914.18   C 770.57 919.80 743.89 918.67 738.35 895.86   A 0.42 0.42 0.0 0 0 737.67 895.64   Q 725.65 905.80 713.51 912.49   Q 708.14 915.44 702.25 916.45   C 691.37 918.32 681.62 913.34 680.37 901.69   C 679.32 891.75 684.98 881.61 690.70 873.15   C 693.97 868.29 696.22 863.97 697.58 858.30   A 0.50 0.50 0.0 0 0 696.95 857.70   C 688.30 860.19 675.04 859.01 670.37 850.04   A 0.31 0.31 0.0 0 0 669.83 850.02   L 628.61 912.87   A 0.98 0.98 0.0 0 1 627.79 913.31   L 604.90 913.31   A 0.39 0.39 0.0 0 1 604.58 912.70   L 655.67 834.80   A 0.22 0.21 -3.4 0 0 655.35 834.52   C 645.94 842.20 637.32 849.27 626.84 854.51   Q 616.01 859.92 604.98 857.81   A 1.06 1.05 22.6 0 0 603.91 858.25   C 592.85 874.43 581.40 889.20 567.22 901.69   Q 557.91 909.90 548.46 914.26   Q 539.43 918.42 529.78 916.63   Q 522.20 915.23 517.63 908.08   C 505.88 889.71 522.04 858.69 533.16 843.16   A 0.22 0.22 0.0 0 0 532.84 842.86   C 522.38 851.54 507.62 860.24 494.03 857.29   A 0.88 0.87 22.8 0 0 493.11 857.66   C 481.09 875.87 467.32 892.94 450.49 906.23   Q 446.45 909.42 439.28 913.31   Q 433.30 916.55 426.33 917.05   Q 418.18 917.64 413.21 914.70   C 403.08 908.71 401.13 896.14 403.07 885.23   C 406.51 865.81 417.67 847.07 430.41 832.04   A 0.29 0.29 0.0 0 0 430.02 831.61   Q 420.80 837.71 410.05 837.45   C 398.02 837.16 392.25 827.24 394.60 816.11   A 0.59 0.58 -6.5 0 0 393.78 815.46   Q 393.04 815.81 392.29 816.54   Q 387.23 821.53 376.68 835.03   Q 371.47 841.70 362.68 854.74   Q 348.95 875.13 323.68 912.79   A 1.18 1.18 0.0 0 1 322.70 913.31   L 300.10 913.31   A 0.27 0.27 0.0 0 1 299.88 912.89   Q 307.28 901.77 362.29 818.33   Q 367.48 810.46 369.92 802.40   C 371.12 798.44 370.23 793.49 364.75 794.58   C 358.05 795.91 351.97 800.86 346.79 805.55   Q 340.72 811.06 335.90 816.41   Q 319.36 834.79 305.38 856.05   A 1.78 1.77 -58.9 0 1 303.05 856.63   L 302.95 856.57   A 1.51 1.50 -59.1 0 1 302.41 854.42   Q 317.54 831.23 335.92 811.42   Q 341.52 805.38 348.14 799.91   C 354.09 794.99 362.58 788.27 370.78 789.83   C 388.35 793.17 382.66 815.31 377.03 825.66   A 0.21 0.21 0.0 0 0 377.36 825.90   Q 386.05 816.57 393.76 809.01   C 400.41 802.48 408.91 795.67 417.80 792.62   C 424.54 790.30 435.82 792.38 433.26 802.02   Q 431.61 808.21 425.23 811.02   Q 414.19 815.88 403.56 810.03   A 1.73 1.73 0.0 0 0 401.22 810.70   C 392.56 826.26 402.66 838.75 419.77 832.49   Q 432.13 827.97 440.92 820.14   Q 450.40 811.70 453.00 809.52   Q 465.28 799.23 479.28 793.54   C 486.42 790.65 496.40 789.08 503.45 792.51   C 525.03 803.00 504.10 840.56 495.61 853.57   A 0.43 0.42 23.0 0 0 495.87 854.21   C 500.98 855.47 507.04 853.49 511.96 851.20   Q 527.62 843.88 540.47 831.47   Q 550.00 822.26 556.76 815.79   Q 572.30 800.93 590.10 793.66   C 597.70 790.56 607.86 789.04 615.11 792.70   C 626.78 798.59 624.83 814.46 621.30 824.56   Q 616.00 839.68 606.51 854.02   A 0.43 0.43 0.0 0 0 606.76 854.67   C 616.48 857.18 629.58 849.89 637.69 844.12   Q 653.72 832.70 665.59 818.12   Q 671.30 811.10 687.20 786.76   Q 708.13 754.74 786.21 635.76   A 0.75 0.73 -73.3 0 1 786.83 635.42   L 809.97 635.42   A 0.32 0.32 0.0 0 1 810.23 635.92   L 691.37 817.16   A 0.08 0.08 0.0 0 0 691.49 817.27   Z   M 488.74 855.45   Q 483.79 847.81 486.58 839.49   Q 491.36 825.22 506.50 819.76   A 0.98 0.98 0.0 0 0 507.11 819.11   C 508.95 812.90 509.64 803.34 504.51 798.87   C 492.64 788.52 472.36 811.88 465.60 819.80   Q 445.35 843.52 429.09 869.53   C 424.12 877.49 405.31 907.87 422.10 912.42   C 429.46 914.42 439.47 908.98 445.35 904.77   C 462.61 892.39 476.83 874.63 488.74 856.38   A 0.86 0.85 45.5 0 0 488.74 855.45   Z   M 599.94 855.45   Q 594.99 847.81 597.78 839.49   Q 602.56 825.22 617.70 819.76   A 0.98 0.98 0.0 0 0 618.31 819.11   C 620.16 812.90 620.85 803.34 615.72 798.87   C 603.85 788.52 583.56 811.88 576.80 819.80   Q 556.55 843.52 540.29 869.53   C 535.32 877.49 516.51 907.87 533.30 912.42   C 540.66 914.42 550.67 908.98 556.55 904.77   C 573.81 892.39 588.03 874.63 599.94 856.38   A 0.86 0.85 45.5 0 0 599.94 855.45   Z   M 771.96 863.63   C 781.93 869.87 777.63 883.06 767.07 885.04   Q 760.96 886.18 756.04 882.17   Q 751.39 878.38 751.30 874.40   A 0.51 0.50 80.2 0 0 750.64 873.93   C 746.32 875.40 743.67 881.18 742.42 885.73   Q 740.30 893.40 744.24 900.24   C 750.30 910.77 762.53 912.55 773.17 908.07   C 792.52 899.92 805.59 876.93 812.67 858.25   Q 823.27 830.27 826.20 799.59   A 0.24 0.23 -22.5 0 0 825.78 799.42   Q 803.45 826.75 782.70 850.96   Q 776.68 857.97 771.87 862.88   A 0.49 0.48 38.2 0 0 771.96 863.63   Z   M 676.03 841.39   Q 693.02 837.57 703.93 851.24   A 0.86 0.85 -30.5 0 0 704.93 851.49   Q 726.93 841.92 737.25 820.50   C 739.38 816.07 740.80 808.94 738.22 804.71   C 731.72 794.03 715.68 802.69 708.10 808.20   C 695.95 817.03 685.48 828.87 675.93 841.23   A 0.10 0.10 0.0 0 0 676.03 841.39   Z   M 697.58 853.54   C 695.39 845.55 684.95 842.14 677.73 844.95   C 675.11 845.96 673.31 849.22 676.25 851.44   C 682.51 856.14 689.77 856.36 697.17 854.26   A 0.59 0.59 0.0 0 0 697.58 853.54   Z"></path>
  <path fill="#272525" d="   M 1432.93 844.52   C 1421.09 858.27 1405.76 873.66 1392.81 885.60   Q 1380.98 896.51 1367.48 906.22   C 1360.84 911.00 1351.86 916.45 1343.27 914.73   Q 1335.95 913.27 1332.59 907.24   C 1328.13 899.25 1330.58 888.09 1334.52 879.75   C 1341.75 864.46 1351.24 850.16 1361.10 835.78   A 0.20 0.20 0.0 0 0 1360.79 835.52   C 1356.40 839.65 1351.18 843.68 1347.07 846.78   C 1337.69 853.88 1325.89 859.42 1313.99 856.97   A 0.73 0.72 -67.9 0 0 1313.22 857.30   Q 1308.71 864.58 1298.92 877.15   Q 1286.30 893.35 1271.34 905.30   C 1262.81 912.12 1252.82 917.54 1241.98 916.92   C 1231.95 916.34 1224.96 908.95 1223.19 899.19   Q 1221.72 891.17 1223.59 882.54   C 1227.60 864.01 1238.16 846.40 1250.40 831.85   A 0.29 0.29 0.0 0 0 1250.03 831.42   Q 1243.04 835.87 1235.02 836.98   C 1221.53 838.84 1211.77 830.17 1214.56 816.15   A 0.86 0.86 0.0 0 0 1213.09 815.40   Q 1198.91 830.71 1186.91 848.41   Q 1162.29 884.75 1143.83 912.45   A 1.31 1.31 0.0 0 1 1142.74 913.03   L 1120.18 913.03   A 0.30 0.29 16.8 0 1 1119.93 912.57   Q 1131.58 895.25 1183.22 816.73   C 1185.63 813.07 1192.86 799.87 1189.72 795.82   C 1185.34 790.19 1172.54 800.35 1168.67 803.69   Q 1162.38 809.11 1156.07 816.07   Q 1139.80 834.02 1125.42 855.83   A 1.68 1.67 -57.0 0 1 1123.12 856.32   L 1123.05 856.28   A 1.63 1.63 0.0 0 1 1122.57 854.02   Q 1136.67 832.46 1153.67 813.67   Q 1161.12 805.43 1169.80 798.31   Q 1176.35 792.94 1182.29 790.58   C 1189.48 787.71 1197.23 789.95 1201.02 796.77   C 1204.34 802.77 1202.34 812.63 1199.97 818.97   Q 1198.73 822.30 1197.30 825.23   A 0.25 0.25 0.0 0 0 1197.72 825.50   Q 1209.62 812.04 1221.03 802.32   Q 1227.16 797.10 1236.25 792.88   C 1241.78 790.31 1254.29 790.71 1253.67 799.53   C 1253.08 808.01 1245.21 812.15 1237.25 812.79   Q 1230.27 813.35 1223.82 809.81   A 1.94 1.94 0.0 0 0 1221.22 810.53   Q 1219.04 814.25 1218.41 818.79   C 1216.54 832.28 1228.17 836.12 1239.11 832.45   C 1249.85 828.84 1258.49 822.59 1267.03 814.54   Q 1279.30 802.98 1293.86 795.63   C 1302.46 791.28 1314.28 788.20 1323.08 792.01   C 1334.18 796.82 1334.09 809.76 1331.37 820.16   C 1328.33 831.75 1322.20 843.16 1315.62 853.52   A 0.31 0.31 0.0 0 0 1315.82 853.99   C 1323.80 855.63 1333.87 851.22 1340.76 846.47   Q 1363.97 830.48 1380.64 805.86   Q 1394.54 785.31 1402.41 773.53   A 0.24 0.23 -73.0 0 0 1402.22 773.16   L 1368.00 773.16   A 0.12 0.12 0.0 0 1 1367.90 772.97   L 1370.41 769.14   A 0.51 0.50 -73.8 0 1 1370.84 768.90   L 1405.13 768.90   A 0.98 0.96 -72.7 0 0 1405.93 768.47   L 1433.67 726.17   A 1.05 1.04 -73.2 0 1 1434.54 725.70   L 1456.90 725.70   A 0.16 0.16 0.0 0 1 1457.04 725.95   L 1429.11 768.53   A 0.24 0.24 0.0 0 0 1429.32 768.90   L 1462.91 768.90   A 0.32 0.32 0.0 0 1 1463.18 769.40   L 1461.06 772.63   A 1.18 1.18 0.0 0 1 1460.07 773.17   L 1426.46 773.17   A 1.08 1.08 0.0 0 0 1425.56 773.65   Q 1368.44 859.85 1366.00 863.50   Q 1357.07 876.84 1350.61 888.12   C 1348.31 892.13 1344.80 898.52 1345.21 903.23   C 1346.80 921.57 1381.42 891.10 1385.35 887.60   Q 1407.32 868.01 1428.75 844.25   Q 1445.84 825.31 1460.19 803.44   Q 1545.40 673.65 1570.11 635.85   A 0.95 0.92 -73.0 0 1 1570.89 635.42   L 1593.98 635.42   A 0.34 0.33 -73.1 0 1 1594.25 635.94   Q 1520.36 747.93 1466.23 830.24   Q 1466.18 830.32 1466.12 830.37   L 1466.13 830.37   Q 1482.18 813.30 1497.39 800.90   Q 1504.99 794.70 1512.83 790.59   C 1516.40 788.71 1523.72 786.17 1527.80 786.92   C 1545.44 790.18 1543.47 808.91 1538.02 821.02   Q 1532.19 833.97 1523.54 846.30   C 1513.28 860.91 1502.55 875.54 1492.67 890.68   Q 1488.73 896.72 1486.76 902.95   Q 1485.11 908.16 1490.17 909.30   C 1493.26 909.99 1499.56 906.45 1502.35 904.58   C 1518.93 893.47 1533.27 878.81 1546.30 863.36   Q 1549.63 859.42 1554.16 852.28   C 1568.72 829.36 1589.15 808.39 1613.03 794.78   Q 1619.54 791.07 1627.52 788.82   C 1635.78 786.49 1649.73 786.40 1651.63 797.72   C 1652.68 803.98 1650.58 809.65 1646.87 814.63   C 1635.16 830.41 1617.42 842.67 1599.11 850.08   Q 1587.63 854.73 1577.13 855.81   A 1.14 1.14 0.0 0 0 1576.34 856.25   Q 1565.86 869.96 1558.81 885.80   C 1556.15 891.76 1554.80 898.08 1556.75 904.18   C 1559.73 913.45 1573.45 910.87 1580.34 907.78   C 1590.58 903.19 1599.94 895.59 1607.86 888.10   C 1633.95 863.40 1659.75 830.06 1689.35 800.11   Q 1694.46 794.94 1700.36 790.88   C 1705.37 787.42 1713.62 786.32 1718.98 789.90   C 1731.08 797.99 1721.95 817.39 1717.03 827.06   A 0.30 0.30 0.0 0 0 1717.52 827.41   Q 1731.57 812.77 1743.16 801.92   C 1750.17 795.35 1768.54 782.82 1776.96 793.62   C 1781.56 799.51 1777.03 806.87 1771.01 809.76   C 1764.37 812.95 1753.82 813.62 1748.58 807.62   A 0.75 0.75 0.0 0 0 1747.54 807.53   Q 1742.48 811.73 1741.51 818.55   C 1739.70 831.20 1749.77 838.25 1761.55 834.50   Q 1767.94 832.47 1772.24 830.22   Q 1790.67 820.56 1805.66 805.40   Q 1816.76 794.19 1827.69 781.80   A 1.82 1.82 0.0 0 1 1830.12 781.52   L 1830.19 781.57   A 1.56 1.55 -53.4 0 1 1830.52 783.84   L 1824.84 790.81   A 12.16 11.75 -13.1 0 0 1823.41 793.02   Q 1818.46 802.87 1816.79 815.02   C 1815.37 825.30 1814.84 839.17 1812.43 849.23   Q 1803.95 884.62 1773.64 905.77   A 0.18 0.18 0.0 0 0 1773.80 906.09   C 1793.41 899.19 1809.12 888.11 1825.86 873.98   Q 1856.02 848.53 1879.08 816.73   A 1.43 1.42 -49.9 0 1 1881.23 816.54   L 1881.34 816.65   A 1.85 1.85 0.0 0 1 1881.54 819.06   Q 1848.67 864.33 1803.62 895.05   Q 1781.81 909.91 1757.11 915.06   Q 1744.89 917.60 1733.39 916.08   C 1720.37 914.36 1708.92 906.26 1710.29 891.69   C 1711.16 882.33 1719.01 872.73 1729.44 875.05   C 1736.48 876.61 1740.67 882.82 1737.14 889.61   Q 1734.28 895.14 1727.01 896.65   Q 1720.07 898.09 1714.92 893.53   A 0.43 0.43 0.0 0 0 1714.21 893.82   Q 1713.52 903.91 1722.67 908.09   C 1741.70 916.79 1762.94 894.64 1773.36 881.36   C 1791.79 857.87 1804.78 830.42 1814.39 801.88   A 0.27 0.27 0.0 0 0 1813.93 801.62   Q 1796.53 821.17 1773.96 833.17   C 1765.57 837.63 1753.94 841.75 1745.31 836.00   C 1736.11 829.87 1736.13 817.70 1741.46 809.14   A 0.13 0.13 0.0 0 0 1741.26 808.98   C 1733.40 816.16 1725.17 825.69 1715.83 836.78   Q 1707.48 846.70 1697.71 861.53   Q 1692.95 868.77 1663.27 912.87   A 1.01 1.00 -72.8 0 1 1662.44 913.31   L 1639.18 913.31   A 0.23 0.22 -72.9 0 1 1639.00 912.96   Q 1654.48 889.63 1699.49 822.24   Q 1704.93 814.09 1709.15 806.40   Q 1711.68 801.78 1712.26 798.05   C 1712.96 793.56 1709.07 792.41 1705.46 793.47   Q 1702.96 794.21 1699.51 796.76   Q 1694.40 800.54 1688.96 805.96   C 1668.60 826.23 1649.05 849.36 1628.52 872.01   Q 1612.93 889.23 1597.09 901.82   C 1585.92 910.71 1571.70 919.10 1556.83 914.26   C 1538.30 908.22 1539.04 885.14 1544.93 870.73   A 0.22 0.22 0.0 0 0 1544.56 870.50   Q 1529.34 888.13 1510.42 903.43   C 1502.10 910.16 1494.25 916.54 1483.98 915.67   C 1474.51 914.86 1470.20 907.70 1470.52 898.81   C 1470.82 890.32 1474.87 882.09 1479.25 874.74   C 1490.41 855.99 1501.55 840.90 1515.34 822.35   C 1518.32 818.35 1532.91 797.79 1525.66 793.44   C 1516.10 787.71 1493.94 807.99 1487.32 814.49   Q 1466.20 835.24 1447.90 859.66   C 1436.26 875.18 1424.12 895.45 1412.59 912.86   A 0.99 0.98 16.2 0 1 1411.76 913.31   L 1388.72 913.31   A 0.29 0.29 0.0 0 1 1388.47 912.86   L 1433.17 844.63   A 0.10 0.10 0.0 0 0 1433.16 844.50   L 1433.16 844.49   A 0.17 0.17 0.0 0 0 1432.93 844.52   Z   M 1579.66 852.27   C 1604.98 847.11 1633.79 831.05 1646.16 807.18   C 1648.58 802.50 1649.33 795.51 1643.57 793.68   C 1632.58 790.20 1617.45 805.32 1610.65 812.85   Q 1594.56 830.62 1579.42 851.91   A 0.23 0.23 0.0 0 0 1579.66 852.27   Z   M 1308.84 855.15   Q 1303.89 847.51 1306.68 839.19   Q 1311.46 824.92 1326.60 819.45   A 0.98 0.98 0.0 0 0 1327.21 818.80   C 1329.06 812.59 1329.75 803.03 1324.61 798.56   C 1312.74 788.21 1292.45 811.58 1285.69 819.50   Q 1265.44 843.23 1249.18 869.25   C 1244.21 877.21 1225.40 907.60 1242.20 912.15   C 1249.56 914.14 1259.57 908.70 1265.45 904.49   C 1282.71 892.10 1296.93 874.34 1308.84 856.08   A 0.86 0.85 45.5 0 0 1308.84 855.15   Z"></path>
</svg>
