<?xml version="1.0" encoding="UTF-8" standalone="no"?>
<svg xmlns="http://www.w3.org/2000/svg" version="1.1" viewBox="0.00 0.00 2364.00 1330.00">
  <path fill="#ff1134" d="   M 1142.08 23.64   L 1166.18 114.66   A 0.31 0.31 0.0 0 1 1165.86 115.05   L 782.31 90.75   A 0.31 0.31 0.0 0 1 782.06 90.29   L 820.58 23.57   A 0.31 0.31 0.0 0 1 820.85 23.41   L 1141.78 23.41   A 0.31 0.31 0.0 0 1 1142.08 23.64   Z"></path>
  <path fill="#ff1134" d="   M 1831.82 439.96   A 0.09 0.09 0.0 0 0 1831.82 440.13   Q 1861.94 445.71 1886.83 461.93   C 1923.53 485.86 1944.83 521.68 1945.19 565.76   Q 1945.37 587.89 1939.02 612.81   Q 1927.63 657.58 1900.65 695.43   C 1859.30 753.44 1797.64 794.98 1732.89 822.89   Q 1670.93 849.60 1605.92 860.63   Q 1579.98 865.03 1555.07 866.16   Q 1546.31 866.56 1503.92 866.57   Q 1191.98 866.68 984.56 866.78   A 0.68 0.68 0.0 0 1 983.90 866.27   L 956.75 759.15   A 0.52 0.51 81.0 0 1 957.21 758.51   L 1247.81 738.09   A 0.50 0.49 12.7 0 0 1248.20 737.85   L 1257.71 721.37   A 0.33 0.32 -73.1 0 0 1257.45 720.88   L 942.34 701.61   A 0.77 0.77 0.0 0 1 941.65 701.04   L 907.96 573.79   A 0.35 0.34 -8.8 0 1 908.28 573.36   L 1357.05 547.06   A 1.05 1.04 12.9 0 0 1357.91 546.53   L 1367.16 530.50   A 0.29 0.29 0.0 0 0 1366.93 530.06   L 559.64 478.91   A 0.32 0.31 16.4 0 1 559.38 478.44   L 597.94 411.66   A 0.67 0.65 12.0 0 1 598.46 411.33   L 1467.13 354.70   A 1.46 1.45 13.3 0 0 1468.29 353.99   L 1477.46 338.09   A 0.21 0.20 -72.8 0 0 1477.30 337.78   L 1222.91 320.99   A 0.25 0.25 0.0 0 1 1222.71 320.62   L 1303.97 179.88   A 0.37 0.36 -76.4 0 1 1304.27 179.69   L 1578.12 161.84   A 0.86 0.85 -76.6 0 0 1578.80 161.42   L 1588.13 145.25   A 0.33 0.33 0.0 0 0 1587.87 144.75   L 1334.48 126.96   A 0.38 0.38 0.0 0 1 1334.17 126.39   L 1393.54 23.56   A 0.41 0.41 0.0 0 1 1393.89 23.36   Q 1536.73 23.35 1879.28 23.39   Q 1900.17 23.39 1933.52 27.79   Q 1968.95 32.47 2001.53 45.71   C 2017.85 52.34 2034.75 62.69 2047.64 74.95   Q 2077.86 103.68 2083.25 147.01   C 2086.62 174.12 2082.63 202.60 2075.31 228.56   Q 2069.48 249.23 2058.55 269.82   C 2012.23 357.03 1925.44 414.29 1831.82 439.96   Z   M 1586.77 348.48   A 0.44 0.44 0.0 0 0 1587.16 349.14   Q 1590.61 349.01 1657.32 348.68   Q 1678.46 348.57 1688.60 347.22   C 1731.43 341.50 1773.32 320.73 1793.58 280.90   C 1802.12 264.14 1805.75 244.56 1801.09 226.15   C 1796.76 209.00 1784.87 194.50 1767.71 189.79   Q 1762.35 188.32 1751.16 188.33   Q 1714.01 188.37 1679.69 188.33   A 0.80 0.79 -75.0 0 0 1679.00 188.73   L 1586.77 348.48   Z   M 1398.17 678.72   Q 1406.73 678.58 1480.36 678.71   Q 1499.35 678.75 1510.08 677.33   Q 1542.55 673.02 1571.51 658.80   C 1604.31 642.69 1629.80 616.10 1637.29 579.79   Q 1640.78 562.87 1636.30 548.40   Q 1628.95 524.66 1605.06 514.20   Q 1596.32 510.37 1586.75 510.32   Q 1534.72 510.08 1494.87 510.32   A 0.52 0.52 0.0 0 0 1494.42 510.58   L 1397.75 678.01   A 0.48 0.47 -75.9 0 0 1398.17 678.72   Z"></path>
  <path fill="#ff1134" d="   M 1184.53 187.53   L 1219.77 320.64   A 0.34 0.34 0.0 0 1 1219.42 321.07   L 671.01 284.88   A 0.34 0.34 0.0 0 1 670.73 284.37   L 709.37 217.45   A 0.34 0.34 0.0 0 1 709.64 217.28   L 1184.18 187.28   A 0.34 0.34 0.0 0 1 1184.53 187.53   Z"></path>
  <path fill="#ff1134" d="   M 448.14 672.49   L 486.79 605.55   A 0.34 0.34 0.0 0 1 487.06 605.38   L 904.32 573.60   A 0.34 0.34 0.0 0 1 904.64 574.11   L 835.04 694.65   A 0.34 0.34 0.0 0 1 834.73 694.82   L 448.41 673.00   A 0.34 0.34 0.0 0 1 448.14 672.49   Z"></path>
  <path fill="#ff1134" d="   M 337.05 866.16   L 375.45 799.68   A 0.43 0.43 0.0 0 1 375.79 799.46   L 791.49 770.26   A 0.43 0.43 0.0 0 1 791.90 770.90   L 736.64 866.60   A 0.43 0.43 0.0 0 1 736.27 866.81   L 337.42 866.81   A 0.43 0.43 0.0 0 1 337.05 866.16   Z"></path>
  <path fill="#ff1134" d="   M 892.56 1300.20   L 845.37 1300.20   A 0.26 0.25 -0.0 0 1 845.11 1299.95   L 845.11 1008.53   A 0.62 0.61 0.0 0 1 845.73 1007.92   L 896.80 1007.92   A 0.64 0.63 0.0 0 1 897.44 1008.55   L 897.44 1100.14   A 0.27 0.27 0.0 0 0 897.91 1100.33   Q 905.34 1092.85 915.03 1087.13   C 945.37 1069.21 984.20 1069.13 1015.09 1085.68   C 1044.76 1101.58 1065.18 1131.04 1072.46 1163.95   C 1079.80 1197.07 1071.87 1233.19 1053.36 1261.26   C 1029.85 1296.91 992.52 1311.70 950.02 1306.21   C 926.90 1303.21 908.25 1292.05 893.82 1274.46   A 0.40 0.39 25.2 0 0 893.12 1274.71   L 893.12 1299.64   A 0.56 0.56 0.0 0 1 892.56 1300.20   Z   M 942.13 1123.95   C 913.60 1131.86 894.76 1157.95 894.34 1187.47   Q 894.11 1204.10 900.00 1218.68   C 919.14 1266.08 985.72 1274.54 1012.76 1229.40   Q 1018.47 1219.87 1020.90 1208.70   C 1027.94 1176.40 1016.74 1141.78 985.17 1127.34   C 971.89 1121.26 955.88 1120.15 942.13 1123.95   Z"></path>
  <rect fill="#ff1134" x="1347.19" y="1007.90" width="52.40" height="292.32" rx="0.51"></rect>
  <path fill="#ff1134" d="   M 445.70 1214.18   L 277.45 1214.18   A 0.58 0.58 0.0 0 0 276.89 1214.89   Q 278.55 1221.57 282.58 1228.20   C 297.24 1252.32 324.03 1263.26 351.50 1257.66   Q 372.49 1253.39 384.29 1236.02   Q 385.68 1233.97 387.20 1231.57   A 0.95 0.93 -73.4 0 1 387.99 1231.13   L 441.62 1231.13   A 0.67 0.66 -80.0 0 1 442.24 1232.02   Q 432.48 1259.33 410.80 1278.55   C 375.07 1310.23 325.47 1316.32 283.10 1294.16   C 241.48 1272.40 217.75 1226.59 222.22 1180.24   C 227.40 1126.55 266.73 1080.18 321.78 1073.25   Q 346.80 1070.09 369.77 1077.26   C 412.54 1090.59 442.53 1129.57 448.51 1173.59   Q 451.12 1192.82 446.45 1213.58   A 0.78 0.77 -83.4 0 1 445.70 1214.18   Z   M 275.60 1171.82   L 395.37 1171.82   A 0.50 0.50 0.0 0 0 395.86 1171.24   C 391.39 1144.86 372.68 1125.16 346.20 1121.25   C 324.33 1118.03 301.75 1126.77 288.05 1144.40   Q 279.01 1156.06 275.39 1171.55   A 0.22 0.22 0.0 0 0 275.60 1171.82   Z"></path>
  <path fill="#ff1134" d="   M 2345.17 1213.57   A 0.78 0.77 -83.4 0 1 2344.42 1214.17   L 2176.17 1214.18   A 0.58 0.58 0.0 0 0 2175.61 1214.89   Q 2177.27 1221.57 2181.30 1228.20   C 2195.96 1252.32 2222.75 1263.26 2250.22 1257.66   Q 2271.21 1253.39 2283.01 1236.01   Q 2284.40 1233.96 2285.92 1231.56   A 0.95 0.93 -73.4 0 1 2286.71 1231.12   L 2340.34 1231.12   A 0.67 0.66 -80.1 0 1 2340.96 1232.01   Q 2331.20 1259.32 2309.52 1278.54   C 2273.79 1310.23 2224.19 1316.32 2181.82 1294.16   C 2140.20 1272.40 2116.47 1226.59 2120.94 1180.24   C 2126.12 1126.55 2165.45 1080.18 2220.50 1073.24   Q 2245.52 1070.08 2268.49 1077.25   C 2311.26 1090.58 2341.25 1129.56 2347.23 1173.58   Q 2349.84 1192.81 2345.17 1213.57   Z   M 2174.31 1171.85   L 2294.08 1171.80   A 0.50 0.50 0.0 0 0 2294.57 1171.22   C 2290.09 1144.85 2271.37 1125.15 2244.89 1121.25   C 2223.02 1118.04 2200.45 1126.79 2186.75 1144.42   Q 2177.72 1156.09 2174.10 1171.58   A 0.22 0.22 0.0 0 0 2174.31 1171.85   Z"></path>
  <path fill="#ff1134" d="   M 63.07 1099.30   A 0.30 0.30 0.0 0 0 63.58 1099.51   Q 70.17 1093.00 76.21 1088.60   C 101.39 1070.26 132.26 1069.32 160.16 1082.28   Q 182.43 1092.65 194.77 1112.94   C 205.17 1130.04 208.46 1153.67 208.48 1173.31   Q 208.54 1281.82 208.45 1299.83   A 0.39 0.39 0.0 0 1 208.06 1300.22   L 156.70 1300.20   A 0.53 0.52 0.6 0 1 156.17 1299.67   Q 156.25 1239.67 156.15 1185.54   C 156.10 1161.72 150.45 1129.57 123.03 1122.97   Q 110.66 1120.00 98.26 1124.39   Q 79.39 1131.07 72.07 1149.46   C 67.80 1160.16 67.04 1173.96 67.00 1186.24   Q 66.87 1232.25 66.93 1299.73   A 0.48 0.48 0.0 0 1 66.45 1300.21   L 15.03 1300.19   A 0.35 0.35 0.0 0 1 14.69 1299.84   L 14.77 1081.36   A 0.48 0.48 0.0 0 1 15.25 1080.88   L 62.49 1080.90   A 0.58 0.58 0.0 0 1 63.07 1081.48   L 63.07 1099.30   Z"></path>
  <path fill="#ff1134" d="   M 1271.40 1273.84   A 0.28 0.27 -24.1 0 0 1270.92 1273.66   C 1251.56 1295.52 1218.08 1309.02 1189.03 1307.13   Q 1163.56 1305.48 1143.10 1293.28   C 1102.63 1269.15 1085.68 1223.31 1089.41 1177.63   C 1093.85 1123.17 1133.08 1079.22 1187.99 1073.92   C 1219.76 1070.85 1250.63 1083.56 1270.70 1108.48   A 0.39 0.39 0.0 0 0 1271.39 1108.23   L 1271.39 1081.51   A 0.64 0.63 -0.0 0 1 1272.03 1080.88   L 1318.70 1080.88   A 0.72 0.72 0.0 0 1 1319.42 1081.60   L 1319.42 1299.83   A 0.38 0.37 -0.0 0 1 1319.04 1300.20   L 1271.98 1300.20   A 0.58 0.58 0.0 0 1 1271.40 1299.62   L 1271.40 1273.84   Z   M 1141.33 1188.93   C 1140.52 1223.15 1162.26 1253.71 1196.97 1258.51   C 1218.69 1261.52 1240.61 1253.60 1254.55 1236.41   C 1264.72 1223.86 1269.44 1208.19 1269.82 1191.99   C 1270.21 1175.78 1266.25 1159.90 1256.68 1146.89   C 1243.57 1129.05 1222.05 1120.10 1200.22 1122.07   C 1165.32 1125.21 1142.14 1154.71 1141.33 1188.93   Z"></path>
  <path fill="#ff1134" d="   M 1597.70 1273.86   A 0.28 0.27 -24.1 0 0 1597.22 1273.68   C 1577.86 1295.54 1544.38 1309.04 1515.33 1307.15   Q 1489.87 1305.50 1469.41 1293.30   C 1428.94 1269.17 1411.99 1223.33 1415.72 1177.65   C 1420.16 1123.20 1459.39 1079.25 1514.30 1073.95   C 1546.07 1070.88 1576.93 1083.59 1597.00 1108.51   A 0.39 0.39 0.0 0 0 1597.69 1108.26   L 1597.69 1081.54   A 0.64 0.63 0.0 0 1 1598.33 1080.91   L 1645.00 1080.91   A 0.72 0.72 0.0 0 1 1645.72 1081.63   L 1645.72 1299.85   A 0.38 0.37 0.0 0 1 1645.34 1300.22   L 1598.28 1300.22   A 0.58 0.58 0.0 0 1 1597.70 1299.64   L 1597.70 1273.86   Z   M 1520.78 1122.79   C 1490.58 1127.98 1471.56 1153.61 1468.11 1183.10   C 1463.53 1222.27 1491.09 1259.20 1532.10 1259.09   C 1555.33 1259.03 1575.01 1248.02 1586.63 1227.88   C 1600.82 1203.30 1599.46 1167.03 1581.38 1144.79   C 1566.75 1126.78 1543.69 1118.86 1520.78 1122.79   Z"></path>
  <path fill="#ff1134" d="   M 1721.92 1099.29   A 0.30 0.30 0.0 0 0 1722.43 1099.50   Q 1729.02 1092.98 1735.06 1088.58   C 1760.24 1070.23 1791.12 1069.27 1819.03 1082.23   Q 1841.31 1092.59 1853.66 1112.88   C 1864.07 1129.98 1867.37 1153.62 1867.39 1173.26   Q 1867.49 1281.80 1867.41 1299.81   A 0.39 0.39 0.0 0 1 1867.02 1300.20   L 1815.65 1300.20   A 0.53 0.52 0.5 0 1 1815.12 1299.67   Q 1815.18 1239.66 1815.06 1185.51   C 1815.00 1161.69 1809.33 1129.53 1781.91 1122.94   Q 1769.53 1119.97 1757.13 1124.37   Q 1738.26 1131.06 1730.94 1149.46   C 1726.68 1160.16 1725.92 1173.96 1725.89 1186.25   Q 1725.77 1232.27 1725.86 1299.76   A 0.48 0.48 0.0 0 1 1725.38 1300.24   L 1673.95 1300.24   A 0.35 0.35 0.0 0 1 1673.60 1299.89   L 1673.60 1081.36   A 0.48 0.48 0.0 0 1 1674.08 1080.88   L 1721.34 1080.88   A 0.58 0.58 0.0 0 1 1721.92 1081.46   L 1721.92 1099.29   Z"></path>
  <path fill="#ff1134" d="   M 2111.83 1228.72   A 0.38 0.38 0.0 0 1 2112.19 1229.23   C 2097.18 1270.68 2063.55 1300.84 2019.19 1306.30   Q 1975.00 1311.74 1938.21 1286.97   C 1913.30 1270.19 1895.85 1244.78 1889.68 1215.38   C 1880.81 1173.17 1894.11 1130.64 1926.73 1102.32   Q 1955.22 1077.60 1992.01 1074.03   Q 2023.66 1070.96 2054.55 1085.81   C 2082.69 1099.34 2102.33 1123.43 2112.28 1153.24   A 0.34 0.33 -9.3 0 1 2111.96 1153.68   L 2053.85 1153.68   A 0.88 0.87 -14.4 0 1 2053.08 1153.23   C 2044.07 1136.95 2032.71 1126.42 2014.26 1122.77   C 1995.05 1118.97 1974.17 1125.01 1959.59 1138.69   C 1943.57 1153.72 1937.57 1176.71 1939.77 1198.54   C 1943.25 1232.91 1969.08 1258.80 2004.25 1259.11   C 2022.55 1259.27 2037.35 1250.38 2048.16 1236.16   Q 2050.46 1233.13 2053.10 1229.20   A 1.11 1.10 -72.7 0 1 2054.01 1228.72   L 2111.83 1228.72   Z"></path>
  <path fill="#ff1134" d="   M 438.07 1081.48   A 0.44 0.44 0.0 0 1 438.49 1080.89   L 493.23 1080.89   A 0.62 0.61 -8.2 0 1 493.82 1081.33   Q 514.84 1151.75 533.15 1213.83   Q 533.43 1214.80 533.88 1214.99   A 0.30 0.30 0.0 0 0 534.28 1214.79   L 569.88 1081.58   A 0.94 0.93 7.1 0 1 570.79 1080.88   L 611.12 1080.88   A 0.73 0.72 82.8 0 1 611.82 1081.43   L 647.08 1214.62   A 0.47 0.47 0.0 0 0 647.98 1214.63   L 687.92 1081.48   A 0.82 0.82 0.0 0 1 688.71 1080.89   L 743.11 1080.89   A 0.59 0.59 0.0 0 1 743.66 1081.68   L 664.27 1299.72   A 0.76 0.76 0.0 0 1 663.55 1300.23   L 632.27 1300.23   A 0.61 0.60 81.6 0 1 631.69 1299.79   L 590.99 1158.49   A 0.51 0.51 0.0 0 0 590.01 1158.49   L 548.98 1299.66   A 0.79 0.78 -81.5 0 1 548.23 1300.22   L 517.05 1300.22   A 0.67 0.67 0.0 0 1 516.42 1299.78   L 438.07 1081.48   Z"></path>
</svg>
