<?xml version="1.0" encoding="UTF-8" standalone="no"?>
<svg xmlns="http://www.w3.org/2000/svg" version="1.1" viewBox="0.00 0.00 2364.00 1330.00">
  <path fill="#000000" d="   M 709.97 335.89   L 813.96 58.34   A 1.65 1.64 -79.7 0 1 815.50 57.27   L 964.09 57.27   Q 964.68 57.27 964.47 57.83   L 727.77 689.59   Q 727.53 690.23 726.84 690.23   L 566.26 690.23   Q 565.69 690.23 565.71 689.65   Q 565.73 688.89 566.09 688.34   Q 566.38 687.89 566.38 687.36   L 566.38 680.23   A 1.80 1.80 0.0 0 1 566.61 679.35   Q 566.93 678.78 566.93 678.50   Q 566.97 674.46 566.97 673.33   Q 566.97 670.81 567.45 668.19   Q 567.81 666.28 567.56 662.75   Q 567.45 661.22 567.90 660.10   Q 568.07 659.65 568.09 659.18   L 569.02 641.46   Q 569.04 641.16 569.21 640.90   Q 569.31 640.76 569.36 640.67   Q 569.45 640.51 569.45 640.32   Q 569.45 637.22 569.43 633.03   C 569.42 632.07 570.03 631.49 570.06 630.63   Q 570.09 629.81 570.07 626.37   Q 570.06 623.98 570.41 622.16   Q 570.89 619.74 570.63 617.25   Q 570.53 616.28 571.19 611.28   Q 571.39 609.74 571.27 607.25   Q 571.18 605.17 571.65 603.27   Q 571.98 601.88 571.95 598.24   Q 571.92 595.67 572.32 593.30   Q 572.76 590.68 572.48 586.55   Q 572.43 585.89 572.59 585.48   Q 572.65 585.32 572.89 584.92   Q 573.15 584.50 573.15 584.00   Q 573.18 580.73 573.12 576.63   Q 573.11 575.97 573.33 575.41   Q 573.34 575.38 573.65 574.64   Q 573.82 574.26 573.79 573.85   Q 573.72 572.45 573.76 566.95   Q 573.77 566.49 573.95 566.09   Q 574.08 565.81 574.22 565.54   Q 574.36 565.25 574.37 564.94   Q 574.40 560.71 574.38 560.52   Q 574.20 558.72 574.76 556.14   Q 575.03 554.88 575.03 551.03   Q 575.03 548.18 575.37 546.49   Q 575.82 544.23 575.55 541.91   Q 575.46 541.09 576.10 536.12   Q 576.32 534.44 576.19 532.19   Q 576.08 530.13 576.54 528.33   Q 576.84 527.15 576.85 522.94   Q 576.86 519.97 577.24 517.62   Q 577.71 514.67 577.36 510.54   A 1.55 1.50 58.5 0 1 577.57 509.60   C 577.83 509.16 578.06 508.90 578.07 508.44   Q 578.11 504.39 578.03 501.01   A 1.64 1.61 62.3 0 1 578.32 500.05   L 578.50 499.79   Q 578.68 499.53 578.68 499.22   Q 578.69 495.10 578.66 491.00   Q 578.66 490.61 579.07 489.91   Q 579.32 489.48 579.32 488.97   Q 579.33 484.68 579.28 482.29   Q 579.26 481.70 579.47 481.23   Q 579.52 481.12 579.68 480.80   Q 579.91 480.37 579.94 479.88   L 581.80 444.23   A 1.95 1.91 62.8 0 1 582.07 443.36   C 582.68 442.39 582.39 438.71 582.35 435.27   Q 582.34 434.77 582.58 434.33   Q 583.16 433.25 583.07 431.75   Q 582.85 428.03 583.18 425.36   Q 583.71 421.14 583.64 419.63   Q 583.49 416.57 584.24 413.73   Q 584.31 413.47 584.05 413.46   L 583.77 413.45   Q 583.73 413.44 583.71 413.49   L 480.59 689.78   Q 480.42 690.23 479.94 690.23   L 331.05 690.23   A 0.60 0.60 0.0 0 1 330.49 689.42   Q 336.84 672.61 344.55 651.91   Q 344.58 651.81 344.86 650.53   Q 345.01 649.86 345.46 649.33   Q 345.78 648.95 345.91 648.46   Q 346.14 647.56 348.16 642.16   Q 561.62 72.49 565.23 63.00   Q 565.83 61.45 565.80 60.80   A 1.23 1.22 -23.4 0 1 566.17 59.88   Q 566.97 59.11 567.05 57.88   Q 567.09 57.27 567.70 57.27   L 726.45 57.27   Q 726.92 57.27 726.99 57.73   Q 727.27 59.60 726.89 61.31   Q 726.44 63.34 726.43 64.75   Q 726.40 69.64 726.27 70.47   Q 726.12 71.56 726.00 72.51   Q 725.65 75.21 725.89 79.68   Q 725.91 80.19 725.69 80.86   Q 725.47 81.54 725.38 82.01   Q 725.10 83.50 725.17 90.00   Q 725.18 90.26 724.86 90.82   Q 724.62 91.26 724.61 91.75   C 724.55 95.55 724.81 97.99 724.17 101.05   C 723.70 103.29 724.05 106.43 723.86 108.98   Q 723.39 115.22 722.85 122.02   C 722.67 124.29 722.94 126.05 722.55 127.95   Q 722.14 129.98 722.12 132.08   C 722.11 134.38 722.29 135.86 721.95 137.64   C 721.30 141.10 721.93 144.98 721.05 148.73   C 720.64 150.46 720.96 152.50 720.81 154.77   Q 719.80 170.24 718.96 183.67   Q 718.95 183.75 718.53 188.06   Q 718.38 189.61 718.44 191.89   Q 718.50 193.67 718.08 195.63   Q 717.60 197.88 717.89 202.76   Q 717.98 204.23 717.43 205.16   Q 717.17 205.58 717.18 206.08   Q 717.20 207.21 717.17 213.64   Q 717.16 213.98 717.02 214.24   Q 716.95 214.37 716.85 214.47   Q 716.64 214.70 716.63 215.02   C 716.54 218.74 716.83 221.10 716.22 224.31   Q 715.91 225.91 715.97 229.40   Q 716.01 231.97 715.53 234.12   Q 715.31 235.11 715.32 238.88   Q 715.33 241.72 714.87 244.65   Q 714.67 245.95 714.75 248.60   Q 714.81 250.52 714.43 252.45   Q 713.89 255.19 714.14 260.01   Q 714.19 260.97 713.63 262.30   A 2.27 2.15 56.8 0 0 713.46 263.25   Q 713.69 269.03 713.31 271.00   Q 712.71 274.15 712.88 276.02   Q 713.01 277.52 712.78 279.40   Q 712.41 282.51 712.40 282.75   Q 712.00 293.35 711.49 298.49   Q 710.90 304.53 711.06 308.40   Q 711.08 308.84 710.85 309.56   Q 710.66 310.15 710.54 310.75   Q 710.39 311.48 710.43 317.96   A 1.61 1.57 62.7 0 1 710.16 318.85   Q 710.02 319.05 709.92 319.28   Q 709.82 319.50 709.82 319.73   Q 709.84 324.14 709.84 324.91   Q 709.85 326.52 709.35 330.04   Q 708.94 332.89 709.27 335.80   Q 709.44 337.30 709.97 335.89   Z"></path>
  <path fill="#000000" d="   M 896.02 690.27   L 746.69 690.27   A 0.43 0.43 0.0 0 1 746.29 689.69   L 983.13 57.59   A 0.43 0.43 0.0 0 1 983.53 57.31   L 1132.85 57.31   A 0.43 0.43 0.0 0 1 1133.25 57.89   L 896.42 689.99   A 0.43 0.43 0.0 0 1 896.02 690.27   Z"></path>
  <path fill="#000000" d="   M 1609.35 294.89   Q 1609.10 295.57 1609.82 295.57   L 1752.37 295.57   Q 1752.75 295.57 1752.62 295.92   L 1708.45 413.79   A 0.93 0.91 9.9 0 1 1707.58 414.39   L 1565.07 414.39   Q 1564.67 414.39 1564.53 414.77   L 1507.62 566.66   A 0.33 0.33 0.0 0 0 1507.93 567.10   L 1681.24 567.10   Q 1681.89 567.10 1681.67 567.72   L 1664.67 615.07   A 0.49 0.49 0.0 0 0 1665.25 615.71   Q 2161.03 481.09 2328.28 436.06   Q 2328.99 435.87 2332.39 435.01   C 2334.21 434.55 2336.52 435.04 2337.94 434.26   Q 2338.40 434.01 2338.88 434.23   Q 2340.06 434.79 2341.79 434.70   C 2343.59 434.60 2344.69 435.29 2345.76 436.41   Q 2346.15 436.81 2346.15 437.38   L 2346.15 440.56   Q 2346.15 441.08 2345.83 441.50   Q 2341.98 446.41 2336.53 448.77   Q 1916.89 631.13 1496.00 813.49   Q 1277.58 908.11 1058.77 1002.56   Q 1018.98 1019.74 840.72 1096.48   Q 779.42 1122.88 718.01 1149.01   Q 636.11 1183.87 616.24 1191.98   Q 581.11 1206.33 546.38 1219.63   Q 526.86 1227.11 507.58 1233.85   Q 473.79 1245.68 440.87 1254.60   Q 427.17 1258.31 410.68 1261.97   Q 406.40 1262.92 405.57 1262.99   A 1.14 1.10 -66.3 0 0 404.96 1263.24   Q 404.31 1263.76 403.25 1263.49   A 1.28 1.25 -53.4 0 0 402.25 1263.65   Q 401.17 1264.35 400.14 1264.10   A 1.23 1.21 33.2 0 0 399.14 1264.30   Q 398.20 1264.97 397.01 1264.70   Q 396.61 1264.61 396.07 1264.96   Q 395.91 1265.07 394.74 1265.29   Q 371.34 1269.83 353.83 1271.60   Q 350.17 1271.97 348.09 1272.27   Q 337.98 1273.72 324.62 1274.05   Q 324.17 1274.06 323.92 1274.23   Q 323.71 1274.37 323.48 1274.47   Q 323.25 1274.58 323.00 1274.58   Q 289.80 1274.62 281.05 1274.57   C 280.12 1274.57 279.18 1274.15 278.40 1274.11   Q 255.63 1273.09 231.50 1268.44   Q 224.70 1267.12 223.53 1266.71   Q 223.06 1266.55 222.58 1266.64   Q 221.99 1266.76 221.46 1266.50   Q 220.72 1266.14 220.51 1266.09   Q 207.80 1263.20 195.39 1259.21   Q 195.28 1259.17 191.59 1258.12   Q 190.08 1257.69 188.67 1257.11   Q 186.62 1256.27 185.80 1255.99   Q 174.97 1252.37 155.22 1243.52   Q 154.42 1243.16 154.14 1243.02   Q 143.75 1237.74 135.02 1232.77   Q 110.65 1218.90 87.87 1200.15   Q 82.99 1196.14 80.47 1193.84   Q 78.93 1192.44 73.26 1187.42   Q 68.94 1183.60 66.47 1180.54   Q 64.65 1178.28 63.29 1176.83   Q 60.25 1173.55 60.17 1173.45   Q 43.54 1153.74 33.44 1131.95   Q 21.93 1107.12 17.37 1078.41   Q 17.35 1078.29 17.31 1076.60   Q 17.28 1075.44 16.85 1074.90   Q 16.52 1074.50 16.59 1073.99   Q 16.79 1072.47 16.38 1071.14   C 15.79 1069.27 16.34 1067.02 15.77 1065.55   Q 15.20 1064.06 15.39 1062.88   Q 15.44 1062.60 15.38 1058.39   A 0.67 0.66 19.5 0 0 15.15 1057.91   Q 15.04 1057.82 14.95 1057.71   Q 14.79 1057.53 14.79 1057.28   L 14.79 1021.26   A 1.80 1.74 60.0 0 1 15.00 1020.42   C 15.72 1019.11 15.28 1017.60 15.35 1016.56   Q 15.81 1009.09 16.86 1000.76   Q 21.12 967.24 30.54 934.96   Q 30.58 934.82 30.93 933.03   Q 31.20 931.67 31.80 930.93   Q 32.09 930.58 32.04 930.03   Q 32.02 929.87 32.18 929.34   Q 47.76 876.86 74.30 822.42   Q 74.35 822.33 79.10 812.15   Q 80.74 808.62 82.50 805.38   Q 85.26 800.31 86.06 798.72   Q 93.46 784.20 99.32 773.56   Q 122.96 730.60 149.93 688.91   Q 188.63 629.09 233.34 570.60   Q 265.56 528.43 294.83 493.44   Q 294.85 493.41 295.99 491.88   C 296.79 490.80 297.95 490.21 298.42 489.13   Q 298.96 487.90 300.90 486.35   Q 301.29 486.05 301.46 485.58   Q 301.87 484.43 303.27 483.27   Q 304.93 481.89 305.62 480.37   Q 305.84 479.91 306.25 479.61   Q 307.89 478.40 308.74 476.67   Q 308.96 476.21 309.35 475.90   Q 311.47 474.23 312.69 471.87   Q 312.92 471.44 313.37 471.60   L 313.76 471.74   Q 313.97 471.82 313.87 472.02   Q 293.70 511.88 278.95 553.20   Q 267.71 584.71 260.77 616.28   Q 256.56 635.45 254.78 651.49   Q 253.92 659.19 253.53 662.50   Q 252.92 667.60 252.70 672.55   Q 252.43 678.49 252.11 682.60   Q 251.77 687.01 251.78 692.41   Q 251.79 693.67 251.88 702.24   C 251.89 703.30 252.27 704.37 252.30 705.32   Q 252.87 720.21 255.19 735.63   Q 259.59 764.80 271.56 791.73   Q 286.74 825.91 315.14 853.64   Q 315.58 854.07 317.87 855.92   Q 319.05 856.86 320.06 858.02   Q 321.15 859.25 322.96 860.43   Q 323.70 860.91 324.72 861.99   Q 325.44 862.75 326.26 863.41   Q 339.70 874.18 354.53 882.98   C 355.19 883.37 356.27 883.55 357.00 884.41   A 1.85 1.83 80.2 0 0 357.76 884.95   Q 359.80 885.77 361.25 886.65   Q 363.93 888.29 364.58 888.61   Q 398.51 905.62 435.06 912.73   Q 455.53 916.72 476.53 918.07   Q 478.55 918.20 480.22 918.35   Q 483.42 918.65 483.93 918.66   Q 506.25 918.72 515.00 918.63   Q 515.49 918.62 516.22 918.45   Q 516.88 918.30 517.41 918.27   Q 549.68 916.55 580.13 909.61   Q 592.04 906.90 605.27 903.29   Q 713.33 873.83 1135.39 759.41   Q 1146.18 756.49 1150.55 755.37   Q 1151.12 755.22 1153.40 754.47   Q 1154.65 754.07 1156.33 753.81   Q 1157.26 753.67 1158.15 753.32   Q 1159.43 752.81 1159.95 752.67   Q 1183.76 746.31 1390.56 690.20   Q 1392.24 689.75 1390.50 689.68   Q 1384.36 689.46 1378.16 689.71   Q 1366.87 690.15 1365.84 690.17   Q 1360.77 690.24 1351.25 690.23   Q 1265.25 690.13 1179.24 690.26   A 0.32 0.32 0.0 0 1 1178.92 689.94   Q 1178.90 683.88 1178.93 677.75   C 1178.94 677.07 1178.33 676.41 1178.33 675.54   Q 1178.32 668.62 1178.31 654.17   Q 1178.31 653.67 1177.98 653.31   Q 1177.86 653.17 1177.77 653.01   Q 1177.69 652.84 1177.69 652.53   Q 1177.69 641.30 1177.67 630.07   Q 1177.67 629.74 1177.32 628.96   Q 1177.08 628.40 1177.08 627.84   Q 1177.06 617.35 1177.09 606.85   Q 1177.09 606.35 1176.80 605.93   Q 1176.66 605.74 1176.51 605.56   Q 1176.44 605.46 1176.44 604.94   Q 1176.46 595.58 1176.44 582.80   A 1.38 1.38 0.0 0 0 1176.13 581.93   Q 1175.86 581.60 1175.86 581.37   Q 1175.87 570.82 1175.83 560.27   C 1175.83 558.99 1175.21 557.96 1175.22 556.73   Q 1175.32 547.05 1175.16 536.50   C 1175.14 535.23 1174.70 533.90 1174.70 532.49   Q 1174.69 524.62 1174.41 511.50   Q 1174.40 511.34 1174.24 511.07   Q 1174.02 510.71 1174.02 510.29   Q 1174.01 506.42 1173.99 487.86   C 1173.99 487.54 1173.87 487.16 1173.65 486.92   Q 1173.40 486.66 1173.40 486.29   Q 1173.37 475.55 1173.38 464.81   Q 1173.38 464.14 1173.26 463.99   Q 1173.17 463.87 1173.07 463.76   Q 1172.77 463.41 1172.77 462.95   Q 1172.80 451.85 1172.77 440.75   C 1172.77 439.84 1172.10 439.16 1172.12 438.07   Q 1172.21 433.34 1172.09 428.29   Q 1172.08 428.12 1171.91 428.12   L 1171.66 428.11   Q 1171.55 428.11 1171.51 428.21   L 1072.55 689.69   A 0.83 0.83 0.0 0 1 1071.77 690.23   L 922.31 690.23   A 0.15 0.15 0.0 0 1 922.17 690.03   Q 980.19 533.94 1015.83 437.99   Q 1016.32 436.69 1016.59 436.24   Q 1016.90 435.72 1016.98 435.35   Q 1017.53 432.84 1018.27 431.54   Q 1018.86 430.50 1019.20 429.19   Q 1019.62 427.60 1019.96 426.73   Q 1021.13 423.77 1105.44 196.90   Q 1105.47 196.82 1105.78 195.52   Q 1105.95 194.79 1106.55 194.16   A 0.52 0.15 -78.9 0 0 1106.68 193.91   L 1157.05 58.00   Q 1157.31 57.27 1158.09 57.27   L 1309.03 57.27   A 0.46 0.46 0.0 0 1 1309.44 57.94   Q 1307.67 61.38 1306.31 65.16   Q 1302.58 75.55 1249.61 214.60   Q 1244.33 228.44 1238.80 242.80   Q 1238.69 243.09 1238.78 243.26   Q 1238.86 243.39 1239.02 243.45   Q 1239.22 243.54 1239.36 243.37   L 1392.21 57.90   A 1.74 1.73 19.7 0 1 1393.55 57.27   L 1848.81 57.27   A 0.52 0.52 0.0 0 1 1849.29 57.98   L 1809.69 162.61   Q 1809.48 163.16 1808.89 163.16   L 1658.72 163.16   A 0.97 0.96 9.9 0 0 1657.81 163.79   L 1609.35 294.89   Z   M 1318.38 318.18   A 0.34 0.34 0.0 0 0 1318.29 318.42   L 1327.70 644.03   A 0.34 0.34 0.0 0 0 1328.36 644.14   L 1542.38 72.94   A 0.34 0.34 0.0 0 0 1541.81 72.59   L 1318.38 318.18   Z"></path>
</svg>
